<svg width="21" height="20" viewBox="0 0 21 20" fill="none" xmlns="http://www.w3.org/2000/svg">
<path d="M16.3333 3.33335H12.85C12.5 2.36669 11.5833 1.66669 10.5 1.66669C9.41667 1.66669 8.5 2.36669 8.15 3.33335H4.66667C3.75 3.33335 3 4.08335 3 5.00002V16.6667C3 17.5834 3.75 18.3334 4.66667 18.3334H16.3333C17.25 18.3334 18 17.5834 18 16.6667V5.00002C18 4.08335 17.25 3.33335 16.3333 3.33335ZM10.5 3.33335C10.9583 3.33335 11.3333 3.70835 11.3333 4.16669C11.3333 4.62502 10.9583 5.00002 10.5 5.00002C10.0417 5.00002 9.66667 4.62502 9.66667 4.16669C9.66667 3.70835 10.0417 3.33335 10.5 3.33335ZM8.83333 15L5.5 11.6667L6.675 10.4917L8.83333 12.6417L14.325 7.15002L15.5 8.33335L8.83333 15Z" fill="currentColor"/>
</svg>
