<svg width="33" height="33" viewBox="0 0 33 33" fill="none" xmlns="http://www.w3.org/2000/svg">
<rect width="33" height="33" fill="#C8C8C8"/>
<path d="M-1194 -830C-1194 -831.105 -1193.1 -832 -1192 -832H8114C8115.1 -832 8116 -831.105 8116 -830V2474C8116 2475.1 8115.1 2476 8114 2476H-1192C-1193.1 2476 -1194 2475.1 -1194 2474V-830Z" fill="#D6D6D6"/>
<path d="M-1192 -831H8114V-833H-1192V-831ZM8115 -830V2474H8117V-830H8115ZM8114 2475H-1192V2477H8114V2475ZM-1193 2474V-830H-1195V2474H-1193ZM-1192 2475C-1192.55 2475 -1193 2474.55 -1193 2474H-1195C-1195 2475.66 -1193.66 2477 -1192 2477V2475ZM8115 2474C8115 2474.55 8114.55 2475 8114 2475V2477C8115.66 2477 8117 2475.66 8117 2474H8115ZM8114 -831C8114.55 -831 8115 -830.552 8115 -830H8117C8117 -831.657 8115.66 -833 8114 -833V-831ZM-1192 -833C-1193.66 -833 -1195 -831.657 -1195 -830H-1193C-1193 -830.552 -1192.55 -831 -1192 -831V-833Z" fill="black" fill-opacity="0.1"/>
<g clip-path="url(#clip0_1_714)">
<rect width="1360" height="1024" transform="translate(-652 -254)" fill="#F6F7FA"/>
<rect x="-620.5" y="-158.5" width="1297" height="830" rx="8.5" stroke="#E4E7EC"/>
<rect x="-620" y="-82" width="1296" height="685" rx="4" fill="white"/>
<mask id="path-5-inside-1_1_714" fill="white">
<path d="M-7.79999 -22.6665H191.8V55.5418H-7.79999V-22.6665Z"/>
</mask>
<path d="M-7.79999 -22.6665H191.8V55.5418H-7.79999V-22.6665Z" fill="white"/>
<path d="M191.8 54.5418H-7.79999V56.5418H191.8V54.5418Z" fill="#E7EAEE" mask="url(#path-5-inside-1_1_714)"/>
<rect x="0.200012" y="0.4375" width="32" height="32" rx="16" fill="#F1F9F1"/>
<path d="M22.8667 23.9375V22.2708C22.8667 21.3868 22.5155 20.5389 21.8904 19.9138C21.2653 19.2887 20.4174 18.9375 19.5334 18.9375H12.8667C11.9826 18.9375 11.1348 19.2887 10.5097 19.9138C9.88455 20.5389 9.53336 21.3868 9.53336 22.2708V23.9375M19.5334 12.2708C19.5334 14.1118 18.041 15.6042 16.2 15.6042C14.3591 15.6042 12.8667 14.1118 12.8667 12.2708C12.8667 10.4299 14.3591 8.9375 16.2 8.9375C18.041 8.9375 19.5334 10.4299 19.5334 12.2708Z" stroke="#65B169" stroke-width="1.66667" stroke-linecap="round" stroke-linejoin="round"/>
</g>
<defs>
<clipPath id="clip0_1_714">
<rect width="1440" height="1024" fill="white" transform="translate(-732 -254)"/>
</clipPath>
</defs>
</svg>
