<svg width="14" height="14" viewBox="0 0 14 14" fill="none" xmlns="http://www.w3.org/2000/svg">
<path d="M9.91667 1.16675C9.59583 1.16675 9.33333 1.42925 9.33333 1.75008V2.33341H4.66667V1.75008C4.66667 1.42925 4.40417 1.16675 4.08333 1.16675C3.7625 1.16675 3.5 1.42925 3.5 1.75008V2.33341H2.91667C2.26917 2.33341 1.75583 2.85841 1.75583 3.50008L1.75 11.6667C1.75 12.3084 2.26917 12.8334 2.91667 12.8334H11.0833C11.725 12.8334 12.25 12.3084 12.25 11.6667V3.50008C12.25 2.85841 11.725 2.33341 11.0833 2.33341H10.5V1.75008C10.5 1.42925 10.2375 1.16675 9.91667 1.16675ZM11.0833 11.6667H2.91667V5.83341H11.0833V11.6667ZM6.41667 7.58341C6.41667 7.26258 6.67917 7.00008 7 7.00008C7.32083 7.00008 7.58333 7.26258 7.58333 7.58341C7.58333 7.90425 7.32083 8.16675 7 8.16675C6.67917 8.16675 6.41667 7.90425 6.41667 7.58341ZM4.08333 7.58341C4.08333 7.26258 4.34583 7.00008 4.66667 7.00008C4.9875 7.00008 5.25 7.26258 5.25 7.58341C5.25 7.90425 4.9875 8.16675 4.66667 8.16675C4.34583 8.16675 4.08333 7.90425 4.08333 7.58341ZM8.75 7.58341C8.75 7.26258 9.0125 7.00008 9.33333 7.00008C9.65417 7.00008 9.91667 7.26258 9.91667 7.58341C9.91667 7.90425 9.65417 8.16675 9.33333 8.16675C9.0125 8.16675 8.75 7.90425 8.75 7.58341ZM6.41667 9.91675C6.41667 9.59591 6.67917 9.33341 7 9.33341C7.32083 9.33341 7.58333 9.59591 7.58333 9.91675C7.58333 10.2376 7.32083 10.5001 7 10.5001C6.67917 10.5001 6.41667 10.2376 6.41667 9.91675ZM4.08333 9.91675C4.08333 9.59591 4.34583 9.33341 4.66667 9.33341C4.9875 9.33341 5.25 9.59591 5.25 9.91675C5.25 10.2376 4.9875 10.5001 4.66667 10.5001C4.34583 10.5001 4.08333 10.2376 4.08333 9.91675ZM8.75 9.91675C8.75 9.59591 9.0125 9.33341 9.33333 9.33341C9.65417 9.33341 9.91667 9.59591 9.91667 9.91675C9.91667 10.2376 9.65417 10.5001 9.33333 10.5001C9.0125 10.5001 8.75 10.2376 8.75 9.91675Z" fill="#6E6E78"/>
<path d="M9.91667 1.16675C9.59583 1.16675 9.33333 1.42925 9.33333 1.75008V2.33341H4.66667V1.75008C4.66667 1.42925 4.40417 1.16675 4.08333 1.16675C3.7625 1.16675 3.5 1.42925 3.5 1.75008V2.33341H2.91667C2.26917 2.33341 1.75583 2.85841 1.75583 3.50008L1.75 11.6667C1.75 12.3084 2.26917 12.8334 2.91667 12.8334H11.0833C11.725 12.8334 12.25 12.3084 12.25 11.6667V3.50008C12.25 2.85841 11.725 2.33341 11.0833 2.33341H10.5V1.75008C10.5 1.42925 10.2375 1.16675 9.91667 1.16675ZM11.0833 11.6667H2.91667V5.83341H11.0833V11.6667ZM6.41667 7.58341C6.41667 7.26258 6.67917 7.00008 7 7.00008C7.32083 7.00008 7.58333 7.26258 7.58333 7.58341C7.58333 7.90425 7.32083 8.16675 7 8.16675C6.67917 8.16675 6.41667 7.90425 6.41667 7.58341ZM4.08333 7.58341C4.08333 7.26258 4.34583 7.00008 4.66667 7.00008C4.9875 7.00008 5.25 7.26258 5.25 7.58341C5.25 7.90425 4.9875 8.16675 4.66667 8.16675C4.34583 8.16675 4.08333 7.90425 4.08333 7.58341ZM8.75 7.58341C8.75 7.26258 9.0125 7.00008 9.33333 7.00008C9.65417 7.00008 9.91667 7.26258 9.91667 7.58341C9.91667 7.90425 9.65417 8.16675 9.33333 8.16675C9.0125 8.16675 8.75 7.90425 8.75 7.58341ZM6.41667 9.91675C6.41667 9.59591 6.67917 9.33341 7 9.33341C7.32083 9.33341 7.58333 9.59591 7.58333 9.91675C7.58333 10.2376 7.32083 10.5001 7 10.5001C6.67917 10.5001 6.41667 10.2376 6.41667 9.91675ZM4.08333 9.91675C4.08333 9.59591 4.34583 9.33341 4.66667 9.33341C4.9875 9.33341 5.25 9.59591 5.25 9.91675C5.25 10.2376 4.9875 10.5001 4.66667 10.5001C4.34583 10.5001 4.08333 10.2376 4.08333 9.91675ZM8.75 9.91675C8.75 9.59591 9.0125 9.33341 9.33333 9.33341C9.65417 9.33341 9.91667 9.59591 9.91667 9.91675C9.91667 10.2376 9.65417 10.5001 9.33333 10.5001C9.0125 10.5001 8.75 10.2376 8.75 9.91675Z" fill="black" fill-opacity="0.2"/>
<path d="M9.91667 1.16675C9.59583 1.16675 9.33333 1.42925 9.33333 1.75008V2.33341H4.66667V1.75008C4.66667 1.42925 4.40417 1.16675 4.08333 1.16675C3.7625 1.16675 3.5 1.42925 3.5 1.75008V2.33341H2.91667C2.26917 2.33341 1.75583 2.85841 1.75583 3.50008L1.75 11.6667C1.75 12.3084 2.26917 12.8334 2.91667 12.8334H11.0833C11.725 12.8334 12.25 12.3084 12.25 11.6667V3.50008C12.25 2.85841 11.725 2.33341 11.0833 2.33341H10.5V1.75008C10.5 1.42925 10.2375 1.16675 9.91667 1.16675ZM11.0833 11.6667H2.91667V5.83341H11.0833V11.6667ZM6.41667 7.58341C6.41667 7.26258 6.67917 7.00008 7 7.00008C7.32083 7.00008 7.58333 7.26258 7.58333 7.58341C7.58333 7.90425 7.32083 8.16675 7 8.16675C6.67917 8.16675 6.41667 7.90425 6.41667 7.58341ZM4.08333 7.58341C4.08333 7.26258 4.34583 7.00008 4.66667 7.00008C4.9875 7.00008 5.25 7.26258 5.25 7.58341C5.25 7.90425 4.9875 8.16675 4.66667 8.16675C4.34583 8.16675 4.08333 7.90425 4.08333 7.58341ZM8.75 7.58341C8.75 7.26258 9.0125 7.00008 9.33333 7.00008C9.65417 7.00008 9.91667 7.26258 9.91667 7.58341C9.91667 7.90425 9.65417 8.16675 9.33333 8.16675C9.0125 8.16675 8.75 7.90425 8.75 7.58341ZM6.41667 9.91675C6.41667 9.59591 6.67917 9.33341 7 9.33341C7.32083 9.33341 7.58333 9.59591 7.58333 9.91675C7.58333 10.2376 7.32083 10.5001 7 10.5001C6.67917 10.5001 6.41667 10.2376 6.41667 9.91675ZM4.08333 9.91675C4.08333 9.59591 4.34583 9.33341 4.66667 9.33341C4.9875 9.33341 5.25 9.59591 5.25 9.91675C5.25 10.2376 4.9875 10.5001 4.66667 10.5001C4.34583 10.5001 4.08333 10.2376 4.08333 9.91675ZM8.75 9.91675C8.75 9.59591 9.0125 9.33341 9.33333 9.33341C9.65417 9.33341 9.91667 9.59591 9.91667 9.91675C9.91667 10.2376 9.65417 10.5001 9.33333 10.5001C9.0125 10.5001 8.75 10.2376 8.75 9.91675Z" fill="black" fill-opacity="0.2"/>
<path d="M9.91667 1.16675C9.59583 1.16675 9.33333 1.42925 9.33333 1.75008V2.33341H4.66667V1.75008C4.66667 1.42925 4.40417 1.16675 4.08333 1.16675C3.7625 1.16675 3.5 1.42925 3.5 1.75008V2.33341H2.91667C2.26917 2.33341 1.75583 2.85841 1.75583 3.50008L1.75 11.6667C1.75 12.3084 2.26917 12.8334 2.91667 12.8334H11.0833C11.725 12.8334 12.25 12.3084 12.25 11.6667V3.50008C12.25 2.85841 11.725 2.33341 11.0833 2.33341H10.5V1.75008C10.5 1.42925 10.2375 1.16675 9.91667 1.16675ZM11.0833 11.6667H2.91667V5.83341H11.0833V11.6667ZM6.41667 7.58341C6.41667 7.26258 6.67917 7.00008 7 7.00008C7.32083 7.00008 7.58333 7.26258 7.58333 7.58341C7.58333 7.90425 7.32083 8.16675 7 8.16675C6.67917 8.16675 6.41667 7.90425 6.41667 7.58341ZM4.08333 7.58341C4.08333 7.26258 4.34583 7.00008 4.66667 7.00008C4.9875 7.00008 5.25 7.26258 5.25 7.58341C5.25 7.90425 4.9875 8.16675 4.66667 8.16675C4.34583 8.16675 4.08333 7.90425 4.08333 7.58341ZM8.75 7.58341C8.75 7.26258 9.0125 7.00008 9.33333 7.00008C9.65417 7.00008 9.91667 7.26258 9.91667 7.58341C9.91667 7.90425 9.65417 8.16675 9.33333 8.16675C9.0125 8.16675 8.75 7.90425 8.75 7.58341ZM6.41667 9.91675C6.41667 9.59591 6.67917 9.33341 7 9.33341C7.32083 9.33341 7.58333 9.59591 7.58333 9.91675C7.58333 10.2376 7.32083 10.5001 7 10.5001C6.67917 10.5001 6.41667 10.2376 6.41667 9.91675ZM4.08333 9.91675C4.08333 9.59591 4.34583 9.33341 4.66667 9.33341C4.9875 9.33341 5.25 9.59591 5.25 9.91675C5.25 10.2376 4.9875 10.5001 4.66667 10.5001C4.34583 10.5001 4.08333 10.2376 4.08333 9.91675ZM8.75 9.91675C8.75 9.59591 9.0125 9.33341 9.33333 9.33341C9.65417 9.33341 9.91667 9.59591 9.91667 9.91675C9.91667 10.2376 9.65417 10.5001 9.33333 10.5001C9.0125 10.5001 8.75 10.2376 8.75 9.91675Z" fill="black" fill-opacity="0.2"/>
</svg>
