<svg width="14" height="14" viewBox="0 0 14 14" fill="none" xmlns="http://www.w3.org/2000/svg">
<path d="M11.6667 4.08333H9.33341V2.91667L8.16675 1.75H5.83341L4.66675 2.91667V4.08333H2.33341C1.69175 4.08333 1.16675 4.60833 1.16675 5.25V8.16667C1.16675 8.60417 1.40008 8.97167 1.75008 9.17583V11.0833C1.75008 11.7308 2.26925 12.25 2.91675 12.25H11.0834C11.7309 12.25 12.2501 11.7308 12.2501 11.0833V9.17C12.5942 8.96583 12.8334 8.5925 12.8334 8.16667V5.25C12.8334 4.60833 12.3084 4.08333 11.6667 4.08333ZM5.83341 2.91667H8.16675V4.08333H5.83341V2.91667ZM2.33341 5.25H11.6667V8.16667H8.75008V6.41667H5.25008V8.16667H2.33341V5.25ZM7.58341 8.75H6.41675V7.58333H7.58341V8.75ZM11.0834 11.0833H2.91675V9.33333H5.25008V9.91667H8.75008V9.33333H11.0834V11.0833Z" fill="#6E6E78"/>
<path d="M11.6667 4.08333H9.33341V2.91667L8.16675 1.75H5.83341L4.66675 2.91667V4.08333H2.33341C1.69175 4.08333 1.16675 4.60833 1.16675 5.25V8.16667C1.16675 8.60417 1.40008 8.97167 1.75008 9.17583V11.0833C1.75008 11.7308 2.26925 12.25 2.91675 12.25H11.0834C11.7309 12.25 12.2501 11.7308 12.2501 11.0833V9.17C12.5942 8.96583 12.8334 8.5925 12.8334 8.16667V5.25C12.8334 4.60833 12.3084 4.08333 11.6667 4.08333ZM5.83341 2.91667H8.16675V4.08333H5.83341V2.91667ZM2.33341 5.25H11.6667V8.16667H8.75008V6.41667H5.25008V8.16667H2.33341V5.25ZM7.58341 8.75H6.41675V7.58333H7.58341V8.75ZM11.0834 11.0833H2.91675V9.33333H5.25008V9.91667H8.75008V9.33333H11.0834V11.0833Z" fill="black" fill-opacity="0.2"/>
<path d="M11.6667 4.08333H9.33341V2.91667L8.16675 1.75H5.83341L4.66675 2.91667V4.08333H2.33341C1.69175 4.08333 1.16675 4.60833 1.16675 5.25V8.16667C1.16675 8.60417 1.40008 8.97167 1.75008 9.17583V11.0833C1.75008 11.7308 2.26925 12.25 2.91675 12.25H11.0834C11.7309 12.25 12.2501 11.7308 12.2501 11.0833V9.17C12.5942 8.96583 12.8334 8.5925 12.8334 8.16667V5.25C12.8334 4.60833 12.3084 4.08333 11.6667 4.08333ZM5.83341 2.91667H8.16675V4.08333H5.83341V2.91667ZM2.33341 5.25H11.6667V8.16667H8.75008V6.41667H5.25008V8.16667H2.33341V5.25ZM7.58341 8.75H6.41675V7.58333H7.58341V8.75ZM11.0834 11.0833H2.91675V9.33333H5.25008V9.91667H8.75008V9.33333H11.0834V11.0833Z" fill="black" fill-opacity="0.2"/>
<path d="M11.6667 4.08333H9.33341V2.91667L8.16675 1.75H5.83341L4.66675 2.91667V4.08333H2.33341C1.69175 4.08333 1.16675 4.60833 1.16675 5.25V8.16667C1.16675 8.60417 1.40008 8.97167 1.75008 9.17583V11.0833C1.75008 11.7308 2.26925 12.25 2.91675 12.25H11.0834C11.7309 12.25 12.2501 11.7308 12.2501 11.0833V9.17C12.5942 8.96583 12.8334 8.5925 12.8334 8.16667V5.25C12.8334 4.60833 12.3084 4.08333 11.6667 4.08333ZM5.83341 2.91667H8.16675V4.08333H5.83341V2.91667ZM2.33341 5.25H11.6667V8.16667H8.75008V6.41667H5.25008V8.16667H2.33341V5.25ZM7.58341 8.75H6.41675V7.58333H7.58341V8.75ZM11.0834 11.0833H2.91675V9.33333H5.25008V9.91667H8.75008V9.33333H11.0834V11.0833Z" fill="black" fill-opacity="0.2"/>
</svg>
