<svg width="21" height="20" viewBox="0 0 21 20" fill="none" xmlns="http://www.w3.org/2000/svg">
<path d="M17.1666 6.66665H14.6666V3.33331H2.99992C2.08325 3.33331 1.33325 4.08331 1.33325 4.99998V14.1666H2.99992C2.99992 15.55 4.11659 16.6666 5.49992 16.6666C6.88325 16.6666 7.99992 15.55 7.99992 14.1666H12.9999C12.9999 15.55 14.1166 16.6666 15.4999 16.6666C16.8833 16.6666 17.9999 15.55 17.9999 14.1666H19.6666V9.99998L17.1666 6.66665ZM16.7499 7.91665L18.3832 9.99998H14.6666V7.91665H16.7499ZM5.49992 15C5.04158 15 4.66658 14.625 4.66658 14.1666C4.66658 13.7083 5.04158 13.3333 5.49992 13.3333C5.95825 13.3333 6.33325 13.7083 6.33325 14.1666C6.33325 14.625 5.95825 15 5.49992 15ZM7.34992 12.5C6.89158 11.9916 6.24158 11.6666 5.49992 11.6666C4.75825 11.6666 4.10825 11.9916 3.64992 12.5H2.99992V4.99998H12.9999V12.5H7.34992ZM15.4999 15C15.0416 15 14.6666 14.625 14.6666 14.1666C14.6666 13.7083 15.0416 13.3333 15.4999 13.3333C15.9583 13.3333 16.3333 13.7083 16.3333 14.1666C16.3333 14.625 15.9583 15 15.4999 15Z" fill="currentColor"/>
</svg>
