<svg width="14" height="14" viewBox="0 0 14 14" fill="none" xmlns="http://www.w3.org/2000/svg">
<path d="M11.6666 4.66665H9.91659V2.33331H1.74992C1.10825 2.33331 0.583252 2.85831 0.583252 3.49998V9.91665H1.74992C1.74992 10.885 2.53159 11.6666 3.49992 11.6666C4.46825 11.6666 5.24992 10.885 5.24992 9.91665H8.74992C8.74992 10.885 9.53159 11.6666 10.4999 11.6666C11.4683 11.6666 12.2499 10.885 12.2499 9.91665H13.4166V6.99998L11.6666 4.66665ZM11.3749 5.54165L12.5183 6.99998H9.91659V5.54165H11.3749ZM3.49992 10.5C3.17909 10.5 2.91659 10.2375 2.91659 9.91665C2.91659 9.59581 3.17909 9.33331 3.49992 9.33331C3.82075 9.33331 4.08325 9.59581 4.08325 9.91665C4.08325 10.2375 3.82075 10.5 3.49992 10.5ZM4.79492 8.74998C4.47409 8.39415 4.01909 8.16665 3.49992 8.16665C2.98075 8.16665 2.52575 8.39415 2.20492 8.74998H1.74992V3.49998H8.74992V8.74998H4.79492ZM10.4999 10.5C10.1791 10.5 9.91659 10.2375 9.91659 9.91665C9.91659 9.59581 10.1791 9.33331 10.4999 9.33331C10.8208 9.33331 11.0833 9.59581 11.0833 9.91665C11.0833 10.2375 10.8208 10.5 10.4999 10.5Z" fill="#6E6E78"/>
<path d="M11.6666 4.66665H9.91659V2.33331H1.74992C1.10825 2.33331 0.583252 2.85831 0.583252 3.49998V9.91665H1.74992C1.74992 10.885 2.53159 11.6666 3.49992 11.6666C4.46825 11.6666 5.24992 10.885 5.24992 9.91665H8.74992C8.74992 10.885 9.53159 11.6666 10.4999 11.6666C11.4683 11.6666 12.2499 10.885 12.2499 9.91665H13.4166V6.99998L11.6666 4.66665ZM11.3749 5.54165L12.5183 6.99998H9.91659V5.54165H11.3749ZM3.49992 10.5C3.17909 10.5 2.91659 10.2375 2.91659 9.91665C2.91659 9.59581 3.17909 9.33331 3.49992 9.33331C3.82075 9.33331 4.08325 9.59581 4.08325 9.91665C4.08325 10.2375 3.82075 10.5 3.49992 10.5ZM4.79492 8.74998C4.47409 8.39415 4.01909 8.16665 3.49992 8.16665C2.98075 8.16665 2.52575 8.39415 2.20492 8.74998H1.74992V3.49998H8.74992V8.74998H4.79492ZM10.4999 10.5C10.1791 10.5 9.91659 10.2375 9.91659 9.91665C9.91659 9.59581 10.1791 9.33331 10.4999 9.33331C10.8208 9.33331 11.0833 9.59581 11.0833 9.91665C11.0833 10.2375 10.8208 10.5 10.4999 10.5Z" fill="black" fill-opacity="0.2"/>
<path d="M11.6666 4.66665H9.91659V2.33331H1.74992C1.10825 2.33331 0.583252 2.85831 0.583252 3.49998V9.91665H1.74992C1.74992 10.885 2.53159 11.6666 3.49992 11.6666C4.46825 11.6666 5.24992 10.885 5.24992 9.91665H8.74992C8.74992 10.885 9.53159 11.6666 10.4999 11.6666C11.4683 11.6666 12.2499 10.885 12.2499 9.91665H13.4166V6.99998L11.6666 4.66665ZM11.3749 5.54165L12.5183 6.99998H9.91659V5.54165H11.3749ZM3.49992 10.5C3.17909 10.5 2.91659 10.2375 2.91659 9.91665C2.91659 9.59581 3.17909 9.33331 3.49992 9.33331C3.82075 9.33331 4.08325 9.59581 4.08325 9.91665C4.08325 10.2375 3.82075 10.5 3.49992 10.5ZM4.79492 8.74998C4.47409 8.39415 4.01909 8.16665 3.49992 8.16665C2.98075 8.16665 2.52575 8.39415 2.20492 8.74998H1.74992V3.49998H8.74992V8.74998H4.79492ZM10.4999 10.5C10.1791 10.5 9.91659 10.2375 9.91659 9.91665C9.91659 9.59581 10.1791 9.33331 10.4999 9.33331C10.8208 9.33331 11.0833 9.59581 11.0833 9.91665C11.0833 10.2375 10.8208 10.5 10.4999 10.5Z" fill="black" fill-opacity="0.2"/>
<path d="M11.6666 4.66665H9.91659V2.33331H1.74992C1.10825 2.33331 0.583252 2.85831 0.583252 3.49998V9.91665H1.74992C1.74992 10.885 2.53159 11.6666 3.49992 11.6666C4.46825 11.6666 5.24992 10.885 5.24992 9.91665H8.74992C8.74992 10.885 9.53159 11.6666 10.4999 11.6666C11.4683 11.6666 12.2499 10.885 12.2499 9.91665H13.4166V6.99998L11.6666 4.66665ZM11.3749 5.54165L12.5183 6.99998H9.91659V5.54165H11.3749ZM3.49992 10.5C3.17909 10.5 2.91659 10.2375 2.91659 9.91665C2.91659 9.59581 3.17909 9.33331 3.49992 9.33331C3.82075 9.33331 4.08325 9.59581 4.08325 9.91665C4.08325 10.2375 3.82075 10.5 3.49992 10.5ZM4.79492 8.74998C4.47409 8.39415 4.01909 8.16665 3.49992 8.16665C2.98075 8.16665 2.52575 8.39415 2.20492 8.74998H1.74992V3.49998H8.74992V8.74998H4.79492ZM10.4999 10.5C10.1791 10.5 9.91659 10.2375 9.91659 9.91665C9.91659 9.59581 10.1791 9.33331 10.4999 9.33331C10.8208 9.33331 11.0833 9.59581 11.0833 9.91665C11.0833 10.2375 10.8208 10.5 10.4999 10.5Z" fill="black" fill-opacity="0.2"/>
</svg>
