<svg width="30" height="30" viewBox="0 0 30 30" fill="none" xmlns="http://www.w3.org/2000/svg">
<g id="local_shipping">
<path id="Vector" d="M24.6003 10.1994H21.0003V5.39941H4.20029C2.88029 5.39941 1.80029 6.47941 1.80029 7.79941V20.9994H4.20029C4.20029 22.9914 5.80829 24.5994 7.80029 24.5994C9.79229 24.5994 11.4003 22.9914 11.4003 20.9994H18.6003C18.6003 22.9914 20.2083 24.5994 22.2003 24.5994C24.1923 24.5994 25.8003 22.9914 25.8003 20.9994H28.2003V14.9994L24.6003 10.1994ZM24.0003 11.9994L26.3523 14.9994H21.0003V11.9994H24.0003ZM7.80029 22.1994C7.14029 22.1994 6.60029 21.6594 6.60029 20.9994C6.60029 20.3394 7.14029 19.7994 7.80029 19.7994C8.46029 19.7994 9.00029 20.3394 9.00029 20.9994C9.00029 21.6594 8.46029 22.1994 7.80029 22.1994ZM10.4643 18.5994C9.80429 17.8674 8.86829 17.3994 7.80029 17.3994C6.73229 17.3994 5.79629 17.8674 5.13629 18.5994H4.20029V7.79941H18.6003V18.5994H10.4643ZM22.2003 22.1994C21.5403 22.1994 21.0003 21.6594 21.0003 20.9994C21.0003 20.3394 21.5403 19.7994 22.2003 19.7994C22.8603 19.7994 23.4003 20.3394 23.4003 20.9994C23.4003 21.6594 22.8603 22.1994 22.2003 22.1994Z" fill="#344054"/>
</g>
</svg>
