<svg width="20" height="21" viewBox="0 0 20 21" fill="none" xmlns="http://www.w3.org/2000/svg">
<g id="lock">
<path id="Vector" d="M15 8.02376H14.1667V6.3571C14.1667 4.0571 12.3 2.19043 9.99999 2.19043C7.7 2.19043 5.83333 4.0571 5.83333 6.3571V8.02376H4.99999C4.08333 8.02376 3.33333 8.77376 3.33333 9.69043V18.0238C3.33333 18.9404 4.08333 19.6904 4.99999 19.6904H15C15.9167 19.6904 16.6667 18.9404 16.6667 18.0238V9.69043C16.6667 8.77376 15.9167 8.02376 15 8.02376ZM7.49999 6.3571C7.49999 4.97376 8.61666 3.8571 9.99999 3.8571C11.3833 3.8571 12.5 4.97376 12.5 6.3571V8.02376H7.49999V6.3571ZM15 18.0238H4.99999V9.69043H15V18.0238ZM9.99999 15.5238C10.9167 15.5238 11.6667 14.7738 11.6667 13.8571C11.6667 12.9404 10.9167 12.1904 9.99999 12.1904C9.08333 12.1904 8.33333 12.9404 8.33333 13.8571C8.33333 14.7738 9.08333 15.5238 9.99999 15.5238Z" fill="#667085"/>
</g>
</svg>
