<svg width="561" height="369" viewBox="0 0 561 369" fill="none" xmlns="http://www.w3.org/2000/svg">
<path d="M482.161 93.6008H539.759C539.759 93.6008 534.666 84.33 519.836 85.6838C505.679 86.9749 504.962 81.1202 497.762 80.4029C490.563 79.6856 484.555 85.1997 482.161 93.6008Z" fill="#D2ECD4"/>
<path d="M258.399 31.0005H357.849C357.849 31.0005 349.053 14.9963 323.455 17.3274C299.005 19.5689 297.759 9.48224 285.332 8.22701C272.905 6.97178 262.586 16.5205 258.399 31.0005Z" fill="#D2ECD4"/>
<path d="M453.814 38.9987C457.879 35.3731 458.236 29.1386 454.61 25.0737C450.984 21.0087 444.75 20.6525 440.685 24.2781C436.62 27.9037 436.264 34.1381 439.889 38.2031C443.515 42.2681 449.75 42.6243 453.814 38.9987Z" fill="#D2ECD4"/>
<path d="M447.158 50.86C446.962 48.9599 446.897 47.0487 446.961 45.1397C446.896 43.2307 446.962 41.3195 447.158 39.4194C447.355 41.3195 447.421 43.2307 447.356 45.1397C447.42 47.0487 447.354 48.9599 447.158 50.86Z" fill="#D2ECD4"/>
<path d="M465.87 31.6282C461.903 31.8912 457.922 31.8912 453.955 31.6282C457.922 31.3652 461.903 31.3652 465.87 31.6282Z" fill="#D2ECD4"/>
<path d="M447.284 14.9336C447.48 16.6746 447.546 18.4278 447.481 20.1787C447.546 21.9265 447.48 23.6768 447.284 25.4148C447.088 23.6768 447.022 21.9265 447.087 20.1787C447.022 18.4278 447.088 16.6746 447.284 14.9336Z" fill="#D2ECD4"/>
<path d="M441.967 32.3364C437.757 32.5994 433.535 32.5994 429.325 32.3364C433.535 32.0734 437.757 32.0734 441.967 32.3364Z" fill="#D2ECD4"/>
<path d="M442.801 28.472C441.519 27.4799 440.32 26.3855 439.215 25.1994C438.026 24.0973 436.931 22.8977 435.942 21.613C437.224 22.6051 438.423 23.6996 439.528 24.8856C440.714 25.9906 441.809 27.19 442.801 28.472Z" fill="#D2ECD4"/>
<path d="M457.729 21.7656C456.998 22.7927 456.159 23.7394 455.228 24.5899C454.388 25.5376 453.45 26.3941 452.43 27.1452C453.168 26.1175 454.009 25.1681 454.941 24.312C455.781 23.3698 456.715 22.5166 457.729 21.7656Z" fill="#D2ECD4"/>
<path d="M458.438 42.9252C457.202 41.9664 456.048 40.9078 454.986 39.7602C453.832 38.7038 452.773 37.5488 451.821 36.3083C453.061 37.261 454.216 38.32 455.273 39.4733C456.423 40.5326 457.482 41.6873 458.438 42.9252Z" fill="#D2ECD4"/>
<path d="M445.087 35.573C443.773 37.1698 442.36 38.6821 440.855 40.1008C439.448 41.6031 437.95 43.0193 436.372 44.3417C437.68 42.7563 439.091 41.2587 440.595 39.8587C442.004 38.3398 443.504 36.9086 445.087 35.573Z" fill="#D2ECD4"/>
<path d="M84.4683 108.161H132.884C132.884 108.161 128.599 100.37 116.127 101.5C104.22 102.584 103.575 97.6711 97.5586 97.0614C91.5425 96.4518 86.4857 101.096 84.4683 108.161Z" fill="#D2ECD4"/>
<path d="M470.084 348.466C470.084 348.466 470.022 348.547 469.878 348.673L469.241 349.228C468.946 349.462 468.569 349.722 468.121 350.035C467.586 350.366 467.032 350.666 466.462 350.932C464.891 351.661 463.225 352.165 461.513 352.429C459.249 352.772 456.952 352.838 454.672 352.627C451.919 352.349 449.191 351.86 446.513 351.165C443.617 350.475 440.551 349.641 437.269 349.076C433.842 348.446 430.334 348.382 426.886 348.888C423.191 349.494 419.542 350.357 415.966 351.47C412.368 352.587 408.694 353.444 404.974 354.034C401.477 354.517 397.925 354.429 394.457 353.774C391.342 353.179 388.259 352.425 385.222 351.515C382.362 350.69 379.699 349.946 377.233 349.39C375.024 348.884 372.779 348.554 370.518 348.404C369.513 348.404 368.581 348.404 367.729 348.448C366.951 348.5 366.176 348.593 365.407 348.726L363.614 349.121L362.314 349.569L361.516 349.838C361.422 349.872 361.326 349.899 361.229 349.919C361.313 349.866 361.403 349.824 361.498 349.793L362.278 349.479C362.628 349.345 363.058 349.166 363.578 348.986L365.371 348.547C366.145 348.398 366.926 348.29 367.711 348.224C368.608 348.117 369.504 348.179 370.527 348.144C372.807 348.257 375.074 348.557 377.305 349.04C379.779 349.578 382.46 350.304 385.32 351.111C388.352 352.008 391.428 352.744 394.537 353.317C397.96 353.957 401.463 354.038 404.911 353.559C408.61 352.963 412.262 352.106 415.84 350.995C419.436 349.873 423.106 349.007 426.824 348.404C430.318 347.901 433.871 347.976 437.341 348.628C440.649 349.202 443.715 350.053 446.603 350.762C449.25 351.469 451.948 351.976 454.672 352.277C456.929 352.503 459.204 352.458 461.45 352.142C463.14 351.9 464.79 351.429 466.354 350.744C467.69 350.148 468.944 349.382 470.084 348.466Z" fill="#6FC373"/>
<path d="M131.351 362.857C131.29 362.93 131.22 362.996 131.145 363.054L130.508 363.619C130.215 363.846 129.839 364.115 129.379 364.426C127.37 365.678 125.123 366.496 122.78 366.829C120.516 367.172 118.219 367.238 115.939 367.026C113.185 366.745 110.458 366.254 107.78 365.556C104.884 364.865 101.817 364.031 98.5269 363.475C95.1031 362.842 91.5986 362.776 88.1533 363.278C84.4584 363.889 80.8097 364.751 77.2328 365.86C73.6321 366.981 69.9555 367.84 66.2316 368.434C62.7344 368.913 59.1826 368.823 55.7145 368.165C52.5987 367.574 49.5162 366.82 46.4796 365.905C43.6195 365.089 40.9566 364.336 38.491 363.789C36.2808 363.274 34.0315 362.944 31.7665 362.803C30.7713 362.803 29.8388 362.749 28.9871 362.803C28.2084 362.857 27.4333 362.953 26.6649 363.09L24.8717 363.484L23.5716 363.924L22.7647 364.202C22.6753 364.237 22.582 364.261 22.4868 364.273L22.7468 364.157L23.5358 363.843C23.8854 363.709 24.3158 363.529 24.8269 363.35L26.6201 362.911C27.393 362.757 28.1744 362.649 28.9602 362.588C29.8568 362.48 30.7533 362.534 31.7755 362.507C34.0564 362.612 36.3241 362.912 38.5537 363.404C41.0283 363.933 43.7091 364.668 46.5693 365.475C49.4294 366.282 52.4957 367.116 55.7773 367.68C59.203 368.317 62.709 368.396 66.1598 367.914C69.863 367.345 73.5213 366.515 77.1072 365.43C80.7027 364.311 84.373 363.448 88.0905 362.848C91.5813 362.342 95.1315 362.415 98.5986 363.063C101.916 363.646 104.982 364.498 107.869 365.197C110.517 365.905 113.215 366.412 115.939 366.712C118.192 366.941 120.465 366.899 122.708 366.587C124.402 366.342 126.055 365.869 127.621 365.179C128.959 364.568 130.213 363.788 131.351 362.857Z" fill="#6FC373"/>
<path d="M286.426 352.689C286.426 352.689 285.888 352.196 284.776 351.506C283.181 350.58 281.404 350.014 279.567 349.847C276.841 349.61 274.095 349.815 271.435 350.457C268.414 351.075 265.096 352.053 261.465 352.25C257.834 352.447 254.454 351.416 251.459 350.69C250.046 350.307 248.612 350.007 247.164 349.793C245.906 349.633 244.634 349.615 243.372 349.739C241.535 349.878 239.766 350.496 238.243 351.533C237.711 351.949 237.208 352.402 236.737 352.887C237.111 352.309 237.585 351.802 238.136 351.389C239.655 350.265 241.454 349.58 243.336 349.408C244.623 349.259 245.922 349.259 247.209 349.408C248.678 349.593 250.133 349.872 251.567 350.242C254.579 350.959 257.888 351.972 261.429 351.757C264.971 351.542 268.279 350.618 271.292 350.017C273.996 349.387 276.787 349.211 279.549 349.497C281.422 349.697 283.223 350.326 284.812 351.335C285.238 351.611 285.634 351.93 285.996 352.286C286.154 352.404 286.298 352.539 286.426 352.689Z" fill="#6FC373"/>
<path d="M479.239 174.366H477.481V238.14H479.239V174.366Z" fill="#6FC373"/>
<path d="M483.453 174.366H481.695V238.14H483.453V174.366Z" fill="#6FC373"/>
<path d="M499.52 174.366H497.762V238.14H499.52V174.366Z" fill="#6FC373"/>
<path d="M462.75 174.366H460.993V238.14H462.75V174.366Z" fill="#6FC373"/>
<path d="M479.23 174.366H460.993V176.168H479.23V174.366Z" fill="#6FC373"/>
<path d="M520.894 178.705H396.304V180.785H520.894V178.705Z" fill="#6FC373"/>
<path d="M499.519 206.249H461.872V208.194H499.519V206.249Z" fill="#6FC373"/>
<path d="M498.999 181.832L497.672 181.012L482.006 206.408L483.333 207.227L498.999 181.832Z" fill="#6FC373"/>
<path d="M478.859 181.07L477.531 180.251L461.865 205.646L463.193 206.465L478.859 181.07Z" fill="#6FC373"/>
<path d="M508.001 169.883H480.063V178.714H508.001V169.883Z" fill="#6FC373"/>
<path d="M425.039 180.014L469.08 146.303L484.762 172.51L485.353 172.16L469.268 145.298L468.964 145.531L424.627 179.477L425.039 180.014Z" fill="#6FC373"/>
<path d="M460.572 180.059L469.152 144.438L479.283 181.467L460.572 180.059ZM461.423 179.441L478.378 180.732L469.197 147.181L461.423 179.441Z" fill="#6FC373"/>
<path d="M560.022 236.769H370.634V248.371H560.022V236.769Z" fill="#6FC373"/>
<path d="M418.961 213.009H437.421V237.136H418.961V213.009ZM436.713 213.69H419.678V236.455H436.713V213.69Z" fill="#6FC373"/>
<path d="M451.812 213.323H437.054V238.14H451.812V213.323Z" fill="#6FC373"/>
<path d="M326.845 222.665H329.911V111.21H326.845V222.665Z" fill="#6FC373"/>
<path d="M319.465 222.665H322.532V111.21H319.465V222.665Z" fill="#6FC373"/>
<path d="M291.393 222.665H294.46V111.21H291.393V222.665Z" fill="#6FC373"/>
<path d="M355.652 222.665H358.718V111.21H355.652V222.665Z" fill="#6FC373"/>
<path d="M326.845 114.357H358.718V111.21H326.845V114.357Z" fill="#6FC373"/>
<path d="M254.032 122.426L471.77 122.426V118.795L254.032 118.795V122.426Z" fill="#6FC373"/>
<path d="M291.393 170.331H357.185V166.942H291.393V170.331Z" fill="#6FC373"/>
<path d="M319.673 168.635L322.001 167.199L294.623 122.819L292.295 124.254L319.673 168.635Z" fill="#6FC373"/>
<path d="M354.522 169.513L356.846 168.064L329.209 123.74L326.884 125.189L354.522 169.513Z" fill="#6FC373"/>
<path d="M276.572 118.795H325.401V103.365H276.572V118.795Z" fill="#6FC373"/>
<path d="M421.552 121.09L344.597 62.1661L317.17 107.964L316.157 107.354L344.256 60.4177L344.785 60.8212L422.278 120.149L421.552 121.09Z" fill="#6FC373"/>
<path d="M326.755 123.619L344.462 58.9114L359.462 121.153L326.755 123.619ZM344.391 63.6723L328.342 122.31L357.974 120.077L344.391 63.6723Z" fill="#6FC373"/>
<path d="M107.134 326.76C107.134 326.76 106.497 326.437 105.341 325.863C103.764 325.018 102.037 324.491 100.257 324.312C99.0221 324.276 97.7868 324.372 96.5721 324.599C95.2452 324.805 93.8824 325.056 92.3671 325.397C89.4353 326.024 86.1896 326.93 82.648 326.993C79.1065 327.056 75.8519 325.998 72.9379 325.307C71.5612 324.95 70.1625 324.683 68.7508 324.509C67.5262 324.375 66.2905 324.375 65.0658 324.509C63.2837 324.671 61.5731 325.288 60.0987 326.302C59.5869 326.71 59.099 327.148 58.6373 327.611C58.7158 327.461 58.8155 327.322 58.9331 327.199C59.2398 326.808 59.5953 326.459 59.9911 326.159C61.4552 325.048 63.194 324.357 65.021 324.16C66.2726 323.993 67.5392 323.972 68.7957 324.097C70.2253 324.252 71.6423 324.507 73.0366 324.859C75.9774 325.54 79.1782 326.562 82.6391 326.5C86.0999 326.437 89.3277 325.558 92.2775 324.949C93.7568 324.626 95.1824 324.384 96.5184 324.186C97.7583 323.971 99.0181 323.893 100.275 323.953C102.092 324.162 103.845 324.749 105.422 325.675C105.986 325.989 106.408 326.24 106.695 326.428C106.857 326.515 107.006 326.627 107.134 326.76Z" fill="#6FC373"/>
<path d="M548.94 291.667C548.94 291.667 548.402 291.165 547.29 290.484C545.701 289.551 543.925 288.981 542.09 288.816C539.363 288.578 536.616 288.787 533.957 289.435C530.927 290.044 527.619 291.022 523.987 291.228C520.356 291.434 516.967 290.394 513.981 289.659C512.566 289.275 511.129 288.975 509.678 288.762C508.419 288.609 507.147 288.594 505.885 288.717C504.05 288.852 502.283 289.47 500.766 290.511C500.248 290.95 499.754 291.417 499.286 291.909C499.665 291.335 500.142 290.832 500.694 290.421C502.207 289.29 504.004 288.601 505.885 288.43C507.172 288.282 508.472 288.282 509.758 288.43C511.226 288.617 512.681 288.892 514.116 289.255C517.128 289.973 520.392 290.986 523.978 290.779C527.565 290.573 530.837 289.632 533.886 289.04C536.589 288.401 539.381 288.225 542.143 288.52C544.017 288.714 545.819 289.344 547.406 290.358C547.833 290.633 548.233 290.948 548.599 291.3C548.832 291.524 548.958 291.649 548.94 291.667Z" fill="#6FC373"/>
<path d="M52.2984 300.49C52.2984 300.534 51.7604 299.996 50.6487 299.306C49.0569 298.38 47.282 297.814 45.4484 297.647C42.7226 297.409 39.9762 297.615 37.3163 298.257C34.2858 298.876 30.9684 299.853 27.3462 300.05C23.7239 300.247 20.3259 299.216 17.3312 298.49C15.9187 298.106 14.4846 297.807 13.0365 297.593C11.7784 297.433 10.5062 297.415 9.24396 297.54C7.40699 297.678 5.63858 298.297 4.11545 299.333C3.57279 299.76 3.05771 300.221 2.5733 300.714C2.94775 300.136 3.42124 299.629 3.97199 299.216C5.49148 298.093 7.29018 297.407 9.17223 297.235C10.4591 297.086 11.7587 297.086 13.0455 297.235C14.5142 297.42 15.9696 297.699 17.403 298.069C20.4155 298.786 23.6791 299.799 27.2655 299.584C30.8519 299.369 34.1155 298.445 37.1729 297.845C39.8775 297.214 42.6682 297.038 45.4305 297.325C47.3031 297.523 49.1045 298.152 50.6935 299.163C51.1215 299.439 51.521 299.757 51.886 300.113C52.0355 300.225 52.1737 300.351 52.2984 300.49Z" fill="#6FC373"/>
<path d="M510.592 328.732C510.333 328.688 510.078 328.622 509.83 328.535C509.328 328.401 508.602 328.168 507.669 327.872C505.795 327.28 503.124 326.294 499.743 325.352C497.907 324.837 496.033 324.462 494.14 324.232C491.972 323.977 489.781 323.977 487.613 324.232C483.013 324.734 478.073 326.141 472.729 326.823C470.124 327.19 467.48 327.19 464.875 326.823C462.356 326.482 459.962 325.971 457.702 325.496C453.174 324.518 449.032 323.837 445.535 324.016C442.771 324.078 440.049 324.707 437.538 325.863C436.868 326.202 436.218 326.579 435.592 326.993C435.383 327.156 435.161 327.303 434.929 327.432C435.69 326.745 436.541 326.163 437.457 325.702C439.973 324.464 442.724 323.776 445.526 323.685C449.113 323.46 453.264 324.124 457.801 325.074C462.338 326.025 467.385 327.181 472.702 326.356C477.992 325.675 482.941 324.285 487.586 323.792C489.787 323.532 492.011 323.532 494.212 323.792C496.121 324.045 498.009 324.441 499.86 324.976C503.24 325.971 505.894 327.002 507.75 327.666L509.884 328.41C510.13 328.493 510.368 328.601 510.592 328.732Z" fill="#6FC373"/>
<path d="M346.282 231.039H0V252.253H346.282V231.039Z" fill="#6FC373"/>
<path d="M121.901 231.488H88.5476V187.734H121.901V231.488ZM89.4442 230.591H121.004V188.63H89.4442V230.591Z" fill="#6FC373"/>
<path d="M148.44 188.182H121.453V233.559H148.44V188.182Z" fill="#6FC373"/>
<path d="M198.578 67.8235H195.368V234.043H198.578V67.8235Z" fill="#6FC373"/>
<path d="M206.288 67.8235H203.078V234.043H206.288V67.8235Z" fill="#6FC373"/>
<path d="M235.67 67.8235H232.46V234.043H235.67V67.8235Z" fill="#6FC373"/>
<path d="M168.434 67.8235H165.224V234.043H168.434V67.8235Z" fill="#6FC373"/>
<path d="M198.569 67.8235H165.224V71.1229H198.569V67.8235Z" fill="#6FC373"/>
<path d="M274.752 75.7671H46.9457V79.5597H274.752V75.7671Z" fill="#6FC373"/>
<path d="M235.67 126.129H166.829V129.679H235.67V126.129Z" fill="#6FC373"/>
<path d="M234.74 81.4587L232.306 79.957L203.661 126.39L206.096 127.892L234.74 81.4587Z" fill="#6FC373"/>
<path d="M197.839 80.1174L195.405 78.6157L166.761 125.049L169.195 126.551L197.839 80.1174Z" fill="#6FC373"/>
<path d="M251.172 59.6196H200.084V75.7673H251.172V59.6196Z" fill="#6FC373"/>
<path d="M99.3784 78.0177L98.8315 77.3094L180.305 14.9333L209.606 63.8784L208.844 64.3446L180.054 16.2603L99.3784 78.0177Z" fill="#6FC373"/>
<path d="M198.443 80.6178L164.668 78.0715L180.153 13.7947L198.443 80.6178ZM165.753 77.2556L197.206 79.6226L180.17 17.399L165.753 77.2556Z" fill="#6FC373"/>
<path d="M31.5332 140.788L34.2499 126.048L51.0341 75.6237L51.8859 75.9106L35.1106 126.272L32.6091 139.874L88.3683 138.896L66.5362 75.9106L67.388 75.6147L89.6235 139.766L31.5332 140.788Z" fill="#6FC373"/>
<path d="M39.4501 126.981H17.6539V153.457H39.4501V126.981Z" fill="#6FC373"/>
<path d="M100.409 126.981H39.459V153.457H100.409V126.981Z" fill="#6FC373"/>
<path d="M29.0137 153.457C28.8792 153.457 28.7806 147.575 28.7806 140.331C28.7806 133.086 28.8792 127.205 29.0137 127.205C29.1482 127.205 29.2468 133.078 29.2468 140.331C29.2468 147.584 29.1392 153.457 29.0137 153.457Z" fill="#3D6B3F"/>
<path d="M39.4591 153.457C39.3336 153.457 39.226 147.575 39.226 140.331C39.226 133.086 39.3336 127.205 39.4591 127.205C39.5847 127.205 39.6922 133.078 39.6922 140.331C39.6922 147.584 39.5847 153.457 39.4591 153.457Z" fill="#3D6B3F"/>
<path d="M96.9845 150.436C96.9845 150.436 96.9845 150.301 96.9845 150.068C96.9845 149.835 96.9845 149.458 96.9845 149.01C96.9845 148.069 96.9845 146.724 96.9397 144.993C96.9397 141.496 96.8949 136.458 96.859 130.173L97.0114 130.334L42.0861 130.406C41.8709 130.621 42.3641 130.128 42.3192 130.181V135.418C42.3192 137.157 42.3192 138.869 42.3192 140.564V150.427L42.0233 150.247L81.321 150.355L92.7795 150.418H95.8638H96.6707C96.7632 150.41 96.8562 150.41 96.9487 150.418H96.7156H95.9355H92.905L81.4914 150.48L42.0413 150.588H41.8082V135.346C41.8082 134.449 41.8082 133.606 41.8082 132.728V130.11L42.0502 129.868L96.9756 129.948H97.137V130.101C97.137 136.377 97.0742 141.496 97.0473 145.02C97.0473 146.733 97.0473 148.069 97.0473 149.001C97.0473 149.431 97.0473 149.772 97.0473 150.023C97.0467 150.163 97.0256 150.302 96.9845 150.436Z" fill="#3D6B3F"/>
<path d="M46.3 150.436C46.1655 150.436 46.0669 145.899 46.0669 140.304C46.0669 134.709 46.1655 130.173 46.3 130.173C46.4345 130.173 46.5331 134.709 46.5331 140.304C46.5331 145.899 46.4255 150.436 46.3 150.436Z" fill="#3D6B3F"/>
<path d="M51.4644 150.436C51.3299 150.436 51.2313 145.899 51.2313 140.304C51.2313 134.709 51.3299 130.173 51.4644 130.173C51.5989 130.173 51.6975 134.709 51.6975 140.304C51.6975 145.899 51.5899 150.436 51.4644 150.436Z" fill="#3D6B3F"/>
<path d="M56.6289 150.436C56.5034 150.436 56.3958 145.899 56.3958 140.304C56.3958 134.709 56.5034 130.173 56.6289 130.173C56.7544 130.173 56.862 134.709 56.862 140.304C56.862 145.899 56.7544 150.436 56.6289 150.436Z" fill="#3D6B3F"/>
<path d="M61.7932 150.436C61.6677 150.436 61.5601 145.899 61.5601 140.304C61.5601 134.709 61.6677 130.173 61.7932 130.173C61.9187 130.173 62.0263 134.709 62.0263 140.304C62.0263 145.899 61.9277 150.436 61.7932 150.436Z" fill="#3D6B3F"/>
<path d="M66.9575 150.436C66.832 150.436 66.7244 145.899 66.7244 140.304C66.7244 134.709 66.832 130.173 66.9575 130.173C67.0831 130.173 67.1907 134.709 67.1907 140.304C67.1907 145.899 67.1279 150.436 66.9575 150.436Z" fill="#3D6B3F"/>
<path d="M72.131 150.436C71.9965 150.436 71.8889 145.899 71.8889 140.304C71.8889 134.709 71.9965 130.173 72.131 130.173C72.2655 130.173 72.3641 134.709 72.3641 140.304C72.3641 145.899 72.2565 150.436 72.131 150.436Z" fill="#3D6B3F"/>
<path d="M77.2953 150.436C77.1608 150.436 77.0622 145.899 77.0622 140.304C77.0622 134.709 77.1608 130.173 77.2953 130.173C77.4298 130.173 77.5284 134.709 77.5284 140.304C77.5284 145.899 77.4208 150.436 77.2953 150.436Z" fill="#3D6B3F"/>
<path d="M82.4597 150.436C82.3252 150.436 82.2266 145.899 82.2266 140.304C82.2266 134.709 82.3252 130.173 82.4597 130.173C82.5942 130.173 82.6928 134.709 82.6928 140.304C82.6928 145.899 82.5852 150.436 82.4597 150.436Z" fill="#3D6B3F"/>
<path d="M87.6241 150.436C87.4986 150.436 87.391 145.899 87.391 140.304C87.391 134.709 87.4986 130.173 87.6241 130.173C87.7496 130.173 87.8572 134.709 87.8572 140.304C87.8572 145.899 87.7496 150.436 87.6241 150.436Z" fill="#3D6B3F"/>
<path d="M92.7885 150.436C92.6629 150.436 92.5554 145.899 92.5554 140.304C92.5554 134.709 92.6629 130.173 92.7885 130.173C92.914 130.173 93.0216 134.709 93.0216 140.304C93.0216 145.899 92.923 150.436 92.7885 150.436Z" fill="#3D6B3F"/>
<path d="M403.548 209.189H394.6V193.911H400.921L403.548 209.189Z" fill="#D2ECD4"/>
<path d="M214.331 216.783H192.535V243.26H214.331V216.783Z" fill="#D2ECD4"/>
<path opacity="0.4" d="M214.331 216.783H192.535V243.26H214.331V216.783Z" fill="#BDE3BF"/>
<path d="M275.29 216.783H214.34V243.26H275.29V216.783Z" fill="#D2ECD4"/>
<path opacity="0.2" d="M275.29 216.783H214.34V243.26H275.29V216.783Z" fill="#BDE3BF"/>
<path d="M203.886 243.26C203.76 243.26 203.652 237.378 203.652 230.134C203.652 222.889 203.76 217.017 203.886 217.017C204.011 217.017 204.119 222.889 204.119 230.134C204.119 237.378 204.02 243.26 203.886 243.26Z" fill="#6FC373"/>
<path d="M271.865 240.238C271.858 240.116 271.858 239.993 271.865 239.871C271.865 239.611 271.865 239.261 271.865 238.822C271.865 237.88 271.865 236.526 271.865 234.796C271.865 231.299 271.811 226.26 271.775 219.984L271.937 220.137L217.012 220.217C216.796 220.424 217.289 219.93 217.236 219.984V230.376C217.236 233.765 217.236 237.064 217.236 240.238L217.012 240.014L256.309 240.113L267.777 240.176H270.861H271.668H271.946H271.695H270.915H267.884L256.462 240.238L217.012 240.346H216.787V240.122C216.787 236.948 216.787 233.648 216.787 230.259V219.984C216.734 220.029 217.236 219.536 217.029 219.751L271.955 219.823H272.116V219.984C272.116 226.26 272.044 231.371 272.027 234.895C272.027 236.607 272.027 237.943 272.027 238.876C272.027 239.315 272.027 239.647 272.027 239.898C271.982 240.015 271.928 240.129 271.865 240.238Z" fill="#6FC373"/>
<path d="M221.172 240.238C221.046 240.238 220.939 235.702 220.939 230.107C220.939 224.512 221.046 219.984 221.172 219.984C221.297 219.984 221.405 224.512 221.405 230.107C221.405 235.702 221.342 240.238 221.172 240.238Z" fill="#6FC373"/>
<path d="M226.345 240.238C226.211 240.238 226.103 235.702 226.103 230.107C226.103 224.512 226.211 219.984 226.345 219.984C226.48 219.984 226.578 224.512 226.578 230.107C226.578 235.702 226.471 240.238 226.345 240.238Z" fill="#6FC373"/>
<path d="M231.51 240.238C231.375 240.238 231.276 235.702 231.276 230.107C231.276 224.512 231.375 219.984 231.51 219.984C231.644 219.984 231.743 224.512 231.743 230.107C231.743 235.702 231.635 240.238 231.51 240.238Z" fill="#6FC373"/>
<path d="M236.674 240.238C236.539 240.238 236.441 235.702 236.441 230.107C236.441 224.512 236.539 219.984 236.674 219.984C236.808 219.984 236.907 224.512 236.907 230.107C236.907 235.702 236.8 240.238 236.674 240.238Z" fill="#6FC373"/>
<path d="M241.838 240.238C241.713 240.238 241.605 235.702 241.605 230.107C241.605 224.512 241.713 219.984 241.838 219.984C241.964 219.984 242.071 224.512 242.071 230.107C242.071 235.702 241.964 240.238 241.838 240.238Z" fill="#6FC373"/>
<path d="M247.003 240.238C246.877 240.238 246.77 235.702 246.77 230.107C246.77 224.512 246.877 219.984 247.003 219.984C247.128 219.984 247.236 224.512 247.236 230.107C247.236 235.702 247.137 240.238 247.003 240.238Z" fill="#6FC373"/>
<path d="M252.167 240.238C252.041 240.238 251.934 235.702 251.934 230.107C251.934 224.512 252.041 219.984 252.167 219.984C252.293 219.984 252.4 224.512 252.4 230.107C252.4 235.702 252.302 240.238 252.167 240.238Z" fill="#6FC373"/>
<path d="M257.34 240.238C257.206 240.238 257.107 235.702 257.107 230.107C257.107 224.512 257.206 219.984 257.34 219.984C257.475 219.984 257.574 224.512 257.574 230.107C257.574 235.702 257.466 240.238 257.34 240.238Z" fill="#6FC373"/>
<path d="M262.505 240.238C262.37 240.238 262.272 235.702 262.272 230.107C262.272 224.512 262.37 219.984 262.505 219.984C262.639 219.984 262.738 224.512 262.738 230.107C262.738 235.702 262.63 240.238 262.505 240.238Z" fill="#6FC373"/>
<path d="M267.669 240.238C267.544 240.238 267.436 235.702 267.436 230.107C267.436 224.512 267.544 219.984 267.669 219.984C267.795 219.984 267.902 224.512 267.902 230.107C267.902 235.702 267.795 240.238 267.669 240.238Z" fill="#6FC373"/>
<path d="M286.354 163.983H264.558V190.46H286.354V163.983Z" fill="#D2ECD4"/>
<path opacity="0.4" d="M286.354 163.983H264.558V190.46H286.354V163.983Z" fill="#BDE3BF"/>
<path d="M347.305 163.983H286.354V190.46H347.305V163.983Z" fill="#D2ECD4"/>
<path opacity="0.2" d="M347.305 163.983H286.354V190.46H347.305V163.983Z" fill="#BDE3BF"/>
<path d="M275.909 190.46C275.783 190.46 275.676 184.578 275.676 177.333C275.676 170.089 275.783 164.207 275.909 164.207C276.034 164.207 276.142 170.089 276.142 177.333C276.142 184.578 276.034 190.46 275.909 190.46Z" fill="#6FC373"/>
<path d="M343.889 187.438C343.876 187.316 343.876 187.193 343.889 187.07C343.889 186.81 343.889 186.461 343.889 186.012C343.889 185.116 343.889 183.726 343.889 181.996C343.889 178.499 343.835 173.46 343.799 167.184L343.96 167.336L289.026 167.417L289.259 167.184V177.566C289.259 180.956 289.259 184.255 289.259 187.429L289.035 187.205L328.333 187.303L339.8 187.366H342.884H343.682H343.969H343.709H342.938H339.899L328.485 187.429L289.035 187.537H288.811V187.312C288.811 184.138 288.811 180.839 288.811 177.45V167.193C288.757 167.238 289.25 166.745 289.044 166.951L343.978 167.031H344.131V167.193C344.131 173.469 344.068 178.58 344.05 182.103C344.05 183.816 344.05 185.152 344.005 186.084C344.005 186.514 344.005 186.855 344.005 187.106C344.005 187.357 343.889 187.438 343.889 187.438Z" fill="#6FC373"/>
<path d="M293.195 187.438C293.07 187.438 292.962 182.901 292.962 177.307C292.962 171.712 293.07 167.184 293.195 167.184C293.321 167.184 293.428 171.712 293.428 177.307C293.428 182.901 293.321 187.438 293.195 187.438Z" fill="#6FC373"/>
<path d="M298.359 187.438C298.234 187.438 298.126 182.901 298.126 177.307C298.126 171.712 298.234 167.184 298.359 167.184C298.485 167.184 298.593 171.712 298.593 177.307C298.593 182.901 298.449 187.438 298.359 187.438Z" fill="#6FC373"/>
<path d="M303.524 187.438C303.398 187.438 303.291 182.901 303.291 177.307C303.291 171.712 303.398 167.184 303.524 167.184C303.649 167.184 303.757 171.712 303.757 177.307C303.757 182.901 303.658 187.438 303.524 187.438Z" fill="#6FC373"/>
<path d="M308.688 187.438C308.563 187.438 308.455 182.901 308.455 177.307C308.455 171.712 308.563 167.184 308.688 167.184C308.814 167.184 308.93 171.712 308.93 177.307C308.93 182.901 308.823 187.438 308.688 187.438Z" fill="#6FC373"/>
<path d="M313.862 187.438C313.727 187.438 313.629 182.901 313.629 177.307C313.629 171.712 313.727 167.184 313.862 167.184C313.996 167.184 314.095 171.712 314.095 177.307C314.095 182.901 313.987 187.438 313.862 187.438Z" fill="#6FC373"/>
<path d="M319.071 187.438C318.936 187.438 318.838 182.901 318.838 177.307C318.838 171.712 318.936 167.184 319.071 167.184C319.205 167.184 319.304 171.712 319.304 177.307C319.304 182.901 319.152 187.438 319.071 187.438Z" fill="#6FC373"/>
<path d="M324.19 187.438C324.065 187.438 323.957 182.901 323.957 177.307C323.957 171.712 324.065 167.184 324.19 167.184C324.316 167.184 324.423 171.712 324.423 177.307C324.423 182.901 324.316 187.438 324.19 187.438Z" fill="#6FC373"/>
<path d="M329.355 187.438C329.229 187.438 329.122 182.901 329.122 177.307C329.122 171.712 329.229 167.184 329.355 167.184C329.48 167.184 329.588 171.712 329.588 177.307C329.588 182.901 329.489 187.438 329.355 187.438Z" fill="#6FC373"/>
<path d="M334.519 187.438C334.394 187.438 334.286 182.901 334.286 177.307C334.286 171.712 334.394 167.184 334.519 167.184C334.645 167.184 334.752 171.712 334.752 177.307C334.752 182.901 334.654 187.438 334.519 187.438Z" fill="#6FC373"/>
<path d="M339.693 187.438C339.558 187.438 339.45 182.901 339.45 177.307C339.45 171.712 339.558 167.184 339.693 167.184C339.827 167.184 339.926 171.712 339.926 177.307C339.926 182.901 339.818 187.438 339.693 187.438Z" fill="#6FC373"/>
<path d="M98.7061 230.179H76.9099V256.655H98.7061V230.179Z" fill="#D2ECD4"/>
<path opacity="0.4" d="M98.7061 230.179H76.9099V256.655H98.7061V230.179Z" fill="#BDE3BF"/>
<path d="M159.657 230.179H98.7062V256.655H159.657V230.179Z" fill="#D2ECD4"/>
<path opacity="0.2" d="M159.657 230.179H98.7062V256.655H159.657V230.179Z" fill="#BDE3BF"/>
<path d="M88.2608 256.655C88.1353 256.655 88.0277 250.782 88.0277 243.529C88.0277 236.275 88.1353 230.412 88.2608 230.412C88.3864 230.412 88.4939 236.284 88.4939 243.529C88.4939 250.773 88.3864 256.655 88.2608 256.655Z" fill="#6FC373"/>
<path d="M156.241 253.634C156.228 253.511 156.228 253.388 156.241 253.266C156.241 253.006 156.241 252.656 156.241 252.217C156.241 251.275 156.241 249.922 156.241 248.191C156.241 244.694 156.187 239.656 156.151 233.379L156.312 233.532L101.378 233.613L101.611 233.379V243.771C101.611 247.16 101.611 250.46 101.611 253.634L101.387 253.409L140.685 253.517L152.152 253.58H155.236H156.034H156.321H156.061H155.29H152.251L140.837 253.642L101.387 253.75H101.163V253.526C101.163 250.352 101.163 247.053 101.163 243.663V233.379C101.109 233.379 101.602 232.931 101.396 233.146L156.33 233.218H156.483V233.379C156.483 239.656 156.42 244.766 156.402 248.29C156.402 250.002 156.402 251.338 156.357 252.271C156.357 252.71 156.357 253.042 156.357 253.293C156.357 253.544 156.241 253.634 156.241 253.634Z" fill="#6FC373"/>
<path d="M105.547 253.633C105.413 253.633 105.314 249.097 105.314 243.502C105.314 237.907 105.413 233.379 105.547 233.379C105.682 233.379 105.78 237.862 105.78 243.502C105.78 249.142 105.682 253.633 105.547 253.633Z" fill="#6FC373"/>
<path d="M110.712 253.633C110.586 253.633 110.478 249.097 110.478 243.502C110.478 237.907 110.586 233.379 110.712 233.379C110.837 233.379 110.945 237.862 110.945 243.502C110.945 249.142 110.837 253.633 110.712 253.633Z" fill="#6FC373"/>
<path d="M115.876 253.633C115.75 253.633 115.643 249.097 115.643 243.502C115.643 237.907 115.75 233.379 115.876 233.379C116.001 233.379 116.109 237.862 116.109 243.502C116.109 249.142 116.01 253.633 115.876 253.633Z" fill="#6FC373"/>
<path d="M121.04 253.633C120.915 253.633 120.807 249.097 120.807 243.502C120.807 237.907 120.915 233.379 121.04 233.379C121.166 233.379 121.273 237.862 121.273 243.502C121.273 249.142 121.175 253.633 121.04 253.633Z" fill="#6FC373"/>
<path d="M126.214 253.633C126.079 253.633 125.981 249.097 125.981 243.502C125.981 237.907 126.079 233.379 126.214 233.379C126.348 233.379 126.447 237.862 126.447 243.502C126.447 249.142 126.303 253.633 126.214 253.633Z" fill="#6FC373"/>
<path d="M131.378 253.633C131.244 253.633 131.145 249.097 131.145 243.502C131.145 237.907 131.244 233.379 131.378 233.379C131.513 233.379 131.611 237.862 131.611 243.502C131.611 249.142 131.504 253.633 131.378 253.633Z" fill="#6FC373"/>
<path d="M136.542 253.633C136.417 253.633 136.309 249.097 136.309 243.502C136.309 237.907 136.417 233.379 136.542 233.379C136.668 233.379 136.775 237.862 136.775 243.502C136.775 249.142 136.668 253.633 136.542 253.633Z" fill="#6FC373"/>
<path d="M141.707 253.633C141.581 253.633 141.474 249.097 141.474 243.502C141.474 237.907 141.581 233.379 141.707 233.379C141.832 233.379 141.94 237.862 141.94 243.502C141.94 249.142 141.832 253.633 141.707 253.633Z" fill="#6FC373"/>
<path d="M146.871 253.633C146.746 253.633 146.638 249.097 146.638 243.502C146.638 237.907 146.746 233.379 146.871 233.379C146.997 233.379 147.104 237.862 147.104 243.502C147.104 249.142 147.006 253.633 146.871 253.633Z" fill="#6FC373"/>
<path d="M152.035 253.633C151.91 253.633 151.802 249.097 151.802 243.502C151.802 237.907 151.91 233.379 152.035 233.379C152.161 233.379 152.269 237.862 152.269 243.502C152.269 249.142 152.17 253.633 152.035 253.633Z" fill="#6FC373"/>
<path d="M239.238 190.603H217.442V217.079H239.238V190.603Z" fill="#6FC373"/>
<path d="M300.198 190.603H239.247V217.079H300.198V190.603Z" fill="#6FC373"/>
<path d="M228.793 217.07C228.667 217.07 228.56 211.198 228.56 203.953C228.56 196.709 228.667 190.827 228.793 190.827C228.918 190.827 229.026 196.7 229.026 203.953C229.026 211.207 228.927 217.07 228.793 217.07Z" fill="#3D6B3F"/>
<path d="M239.274 217.07C239.14 217.07 239.041 211.198 239.041 203.953C239.041 196.709 239.14 190.827 239.274 190.827C239.409 190.827 239.507 196.7 239.507 203.953C239.507 211.207 239.373 217.07 239.274 217.07Z" fill="#3D6B3F"/>
<path d="M296.773 214.049C296.765 213.926 296.765 213.804 296.773 213.681C296.773 213.421 296.773 213.081 296.773 212.632C296.773 211.691 296.773 210.346 296.773 208.607C296.773 205.11 296.719 200.071 296.683 193.795L296.844 193.956L241.919 194.028C241.704 194.234 242.197 193.741 242.143 193.795V204.168C242.143 207.558 242.143 210.857 242.143 214.031L241.919 213.807L281.217 213.914L292.684 213.977H295.768H296.566H296.853H296.602H295.759H292.72L281.306 214.04L241.856 214.139H241.632V213.914C241.632 210.74 241.632 207.441 241.632 204.052V193.813L241.874 193.58L296.799 193.651H296.961V193.813C296.961 200.134 296.889 205.208 296.871 208.723C296.871 210.445 296.871 211.78 296.871 212.713C296.871 213.143 296.871 213.484 296.871 213.735C296.846 213.842 296.814 213.947 296.773 214.049Z" fill="#3D6B3F"/>
<path d="M246.079 214.049C245.954 214.049 245.846 209.512 245.846 203.926C245.846 198.341 245.954 193.795 246.079 193.795C246.205 193.795 246.312 198.332 246.312 203.926C246.312 209.521 246.214 214.049 246.079 214.049Z" fill="#3D6B3F"/>
<path d="M251.243 214.049C251.118 214.049 251.01 209.512 251.01 203.926C251.01 198.341 251.118 193.795 251.243 193.795C251.369 193.795 251.477 198.332 251.477 203.926C251.477 209.521 251.378 214.049 251.243 214.049Z" fill="#3D6B3F"/>
<path d="M256.417 214.049C256.282 214.049 256.184 209.512 256.184 203.926C256.184 198.341 256.282 193.795 256.417 193.795C256.551 193.795 256.65 198.332 256.65 203.926C256.65 209.521 256.542 214.049 256.417 214.049Z" fill="#3D6B3F"/>
<path d="M261.581 214.049C261.447 214.049 261.348 209.512 261.348 203.926C261.348 198.341 261.447 193.795 261.581 193.795C261.716 193.795 261.814 198.332 261.814 203.926C261.814 209.521 261.689 214.049 261.581 214.049Z" fill="#3D6B3F"/>
<path d="M266.746 214.049C266.62 214.049 266.513 209.512 266.513 203.926C266.513 198.341 266.62 193.795 266.746 193.795C266.871 193.795 266.979 198.332 266.979 203.926C266.979 209.521 266.871 214.049 266.746 214.049Z" fill="#3D6B3F"/>
<path d="M271.91 214.049C271.785 214.049 271.677 209.512 271.677 203.926C271.677 198.341 271.785 193.795 271.91 193.795C272.036 193.795 272.143 198.332 272.143 203.926C272.143 209.521 272.045 214.049 271.91 214.049Z" fill="#3D6B3F"/>
<path d="M277.074 214.049C276.949 214.049 276.841 209.512 276.841 203.926C276.841 198.341 276.949 193.795 277.074 193.795C277.2 193.795 277.308 198.332 277.308 203.926C277.308 209.521 277.209 214.049 277.074 214.049Z" fill="#3D6B3F"/>
<path d="M282.239 214.049C282.113 214.049 282.006 209.512 282.006 203.926C282.006 198.341 282.113 193.795 282.239 193.795C282.364 193.795 282.481 198.332 282.481 203.926C282.481 209.521 282.373 214.049 282.239 214.049Z" fill="#3D6B3F"/>
<path d="M287.412 214.049C287.278 214.049 287.179 209.512 287.179 203.926C287.179 198.341 287.278 193.795 287.412 193.795C287.547 193.795 287.645 198.332 287.645 203.926C287.645 209.521 287.538 214.049 287.412 214.049Z" fill="#3D6B3F"/>
<path d="M292.577 214.049C292.442 214.049 292.343 209.512 292.343 203.926C292.343 198.341 292.442 193.795 292.577 193.795C292.711 193.795 292.81 198.332 292.81 203.926C292.81 209.521 292.702 214.049 292.577 214.049Z" fill="#3D6B3F"/>
<path d="M186.509 244.112H164.713V270.588H186.509V244.112Z" fill="#D2ECD4"/>
<path d="M247.469 244.112H186.518V270.588H247.469V244.112Z" fill="#D2ECD4"/>
<path opacity="0.4" d="M247.469 244.112H186.518V270.588H247.469V244.112Z" fill="black"/>
<path d="M176.073 270.588C175.939 270.588 175.84 264.715 175.84 257.462C175.84 250.208 175.939 244.345 176.073 244.345C176.208 244.345 176.306 250.217 176.306 257.462C176.306 264.706 176.199 270.588 176.073 270.588Z" fill="#6FC373"/>
<path d="M244.044 267.567C244.044 267.567 244.044 267.432 244.044 267.199C244.044 266.966 244.044 266.589 244.044 266.15C244.044 265.253 244.044 263.855 243.999 262.124C243.999 258.628 243.954 253.589 243.918 247.313L244.071 247.465L189.146 247.546L189.379 247.313V249.948C189.379 250.845 189.379 251.697 189.379 252.558V267.567L189.154 267.342L228.452 267.45L239.911 267.513H242.995H243.802C243.894 267.505 243.987 267.505 244.08 267.513H243.757H242.977H239.947L228.533 267.576L189.083 267.683H188.85V252.441C188.85 251.544 188.85 250.702 188.85 249.832V247.196C188.805 247.241 189.298 246.748 189.092 246.963L244.017 247.035H244.178V247.196C244.178 253.472 244.116 258.583 244.089 262.106C244.089 263.819 244.089 265.155 244.089 266.087C244.089 266.527 244.089 266.858 244.089 267.109C244.1 267.263 244.085 267.418 244.044 267.567Z" fill="#6FC373"/>
<path d="M193.359 267.567C193.225 267.567 193.126 263.03 193.126 257.435C193.126 251.84 193.225 247.312 193.359 247.312C193.494 247.312 193.593 251.84 193.593 257.435C193.593 263.03 193.485 267.567 193.359 267.567Z" fill="#6FC373"/>
<path d="M198.524 267.567C198.389 267.567 198.291 263.03 198.291 257.435C198.291 251.84 198.389 247.312 198.524 247.312C198.658 247.312 198.757 251.84 198.757 257.435C198.757 263.03 198.649 267.567 198.524 267.567Z" fill="#6FC373"/>
<path d="M203.688 267.567C203.563 267.567 203.455 263.03 203.455 257.435C203.455 251.84 203.563 247.312 203.688 247.312C203.814 247.312 203.921 251.84 203.921 257.435C203.921 263.03 203.814 267.567 203.688 267.567Z" fill="#6FC373"/>
<path d="M208.853 267.567C208.727 267.567 208.62 263.03 208.62 257.435C208.62 251.84 208.727 247.312 208.853 247.312C208.978 247.312 209.086 251.84 209.086 257.435C209.086 263.03 208.987 267.567 208.853 267.567Z" fill="#6FC373"/>
<path d="M214.017 267.567C213.892 267.567 213.784 263.03 213.784 257.435C213.784 251.84 213.892 247.312 214.017 247.312C214.143 247.312 214.25 251.84 214.25 257.435C214.25 263.03 214.17 267.567 214.017 267.567Z" fill="#6FC373"/>
<path d="M219.181 267.567C219.056 267.567 218.948 263.03 218.948 257.435C218.948 251.84 219.056 247.312 219.181 247.312C219.307 247.312 219.423 251.84 219.423 257.435C219.423 263.03 219.316 267.567 219.181 267.567Z" fill="#6FC373"/>
<path d="M224.355 267.567C224.22 267.567 224.122 263.03 224.122 257.435C224.122 251.84 224.22 247.312 224.355 247.312C224.489 247.312 224.588 251.84 224.588 257.435C224.588 263.03 224.48 267.567 224.355 267.567Z" fill="#6FC373"/>
<path d="M229.519 267.567C229.385 267.567 229.286 263.03 229.286 257.435C229.286 251.84 229.385 247.312 229.519 247.312C229.654 247.312 229.752 251.84 229.752 257.435C229.752 263.03 229.645 267.567 229.519 267.567Z" fill="#6FC373"/>
<path d="M234.684 267.567C234.558 267.567 234.45 263.03 234.45 257.435C234.45 251.84 234.558 247.312 234.684 247.312C234.809 247.312 234.917 251.84 234.917 257.435C234.917 263.03 234.791 267.567 234.684 267.567Z" fill="#6FC373"/>
<path d="M239.848 267.567C239.722 267.567 239.615 263.03 239.615 257.435C239.615 251.84 239.722 247.312 239.848 247.312C239.973 247.312 240.081 251.84 240.081 257.435C240.081 263.03 239.982 267.567 239.848 267.567Z" fill="#6FC373"/>
<path d="M256.175 243.251H234.379V269.727H256.175V243.251Z" fill="#6FC373"/>
<path d="M317.125 243.251H256.175V269.727H317.125V243.251Z" fill="#6FC373"/>
<path d="M245.73 269.727C245.595 269.727 245.496 263.846 245.496 256.601C245.496 249.357 245.595 243.475 245.73 243.475C245.864 243.475 245.963 249.348 245.963 256.601C245.963 263.855 245.855 269.727 245.73 269.727Z" fill="#3D6B3F"/>
<path d="M256.175 269.727C256.049 269.727 255.942 263.846 255.942 256.601C255.942 249.357 256.049 243.475 256.175 243.475C256.3 243.475 256.408 249.348 256.408 256.601C256.408 263.855 256.309 269.727 256.175 269.727Z" fill="#3D6B3F"/>
<path d="M313.691 266.706C313.691 266.706 313.691 266.571 313.691 266.338C313.691 266.105 313.691 265.728 313.691 265.28C313.691 264.339 313.691 262.994 313.646 261.263C313.646 257.767 313.602 252.728 313.566 246.443L313.718 246.604L258.793 246.685L259.026 246.452V251.688C259.026 253.427 259.026 255.14 259.026 256.834V266.697L258.802 266.473L298.1 266.571L309.558 266.634H312.642H313.449H313.727H313.476H312.696H309.666L298.252 266.697L258.802 266.804H258.578V246.461C258.524 246.506 259.017 246.012 258.811 246.219L313.736 246.299H313.898V246.452C313.898 252.728 313.835 257.847 313.808 261.371C313.808 263.084 313.808 264.419 313.808 265.352C313.808 265.782 313.808 266.123 313.808 266.374C313.783 266.489 313.744 266.6 313.691 266.706Z" fill="#3D6B3F"/>
<path d="M263.016 266.706C262.881 266.706 262.783 262.169 262.783 256.574C262.783 250.98 262.881 246.443 263.016 246.443C263.15 246.443 263.249 250.98 263.249 256.574C263.249 262.169 263.141 266.706 263.016 266.706Z" fill="#3D6B3F"/>
<path d="M268.18 266.706C268.046 266.706 267.947 262.169 267.947 256.574C267.947 250.98 268.046 246.443 268.18 246.443C268.315 246.443 268.413 250.98 268.413 256.574C268.413 262.169 268.306 266.706 268.18 266.706Z" fill="#3D6B3F"/>
<path d="M273.345 266.706C273.219 266.706 273.112 262.169 273.112 256.574C273.112 250.98 273.219 246.443 273.345 246.443C273.47 246.443 273.578 250.98 273.578 256.574C273.578 262.169 273.47 266.706 273.345 266.706Z" fill="#3D6B3F"/>
<path d="M278.509 266.706C278.384 266.706 278.276 262.169 278.276 256.574C278.276 250.98 278.384 246.443 278.509 246.443C278.635 246.443 278.742 250.98 278.742 256.574C278.742 262.169 278.644 266.706 278.509 266.706Z" fill="#3D6B3F"/>
<path d="M283.673 266.706C283.548 266.706 283.44 262.169 283.44 256.574C283.44 250.98 283.548 246.443 283.673 246.443C283.799 246.443 283.907 250.98 283.907 256.574C283.907 262.169 283.808 266.706 283.673 266.706Z" fill="#3D6B3F"/>
<path d="M288.847 266.706C288.712 266.706 288.614 262.169 288.614 256.574C288.614 250.98 288.712 246.443 288.847 246.443C288.981 246.443 289.08 250.98 289.08 256.574C289.08 262.169 288.972 266.706 288.847 266.706Z" fill="#3D6B3F"/>
<path d="M294.011 266.706C293.877 266.706 293.778 262.169 293.778 256.574C293.778 250.98 293.877 246.443 294.011 246.443C294.146 246.443 294.244 250.98 294.244 256.574C294.244 262.169 294.137 266.706 294.011 266.706Z" fill="#3D6B3F"/>
<path d="M299.176 266.706C299.05 266.706 298.942 262.169 298.942 256.574C298.942 250.98 299.05 246.443 299.176 246.443C299.301 246.443 299.409 250.98 299.409 256.574C299.409 262.169 299.346 266.706 299.176 266.706Z" fill="#3D6B3F"/>
<path d="M304.34 266.706C304.214 266.706 304.107 262.169 304.107 256.574C304.107 250.98 304.214 246.443 304.34 246.443C304.465 246.443 304.573 250.98 304.573 256.574C304.573 262.169 304.465 266.706 304.34 266.706Z" fill="#3D6B3F"/>
<path d="M309.504 266.706C309.379 266.706 309.271 262.169 309.271 256.574C309.271 250.98 309.379 246.443 309.504 246.443C309.63 246.443 309.737 250.98 309.737 256.574C309.737 262.169 309.639 266.706 309.504 266.706Z" fill="#3D6B3F"/>
<path d="M273.309 190.711H251.513V217.187H273.309V190.711Z" fill="#3D6B3F"/>
<path d="M334.259 190.711H273.309V217.187H334.259V190.711Z" fill="#3D6B3F"/>
<path d="M262.863 217.187C262.738 217.187 262.63 211.305 262.63 204.061C262.63 196.816 262.738 190.935 262.863 190.935C262.989 190.935 263.096 196.816 263.096 204.061C263.096 211.305 262.998 217.187 262.863 217.187Z" fill="#6FC373"/>
<path d="M273.345 217.187C273.219 217.187 273.112 211.305 273.112 204.061C273.112 196.816 273.219 190.935 273.345 190.935C273.47 190.935 273.578 196.816 273.578 204.061C273.578 211.305 273.443 217.187 273.345 217.187Z" fill="#6FC373"/>
<path d="M330.843 214.165C330.836 214.043 330.836 213.92 330.843 213.798C330.843 213.538 330.843 213.188 330.843 212.74C330.843 211.843 330.843 210.453 330.843 208.723C330.843 205.226 330.789 200.188 330.753 193.911L330.915 194.064L275.981 194.144L276.214 193.911V204.303C276.214 207.692 276.214 210.991 276.214 214.165L275.99 213.941L315.287 214.04L326.755 214.103H329.839H330.637H330.924H330.664H329.893H326.853L315.44 214.165L275.99 214.273H275.765V214.049C275.765 210.875 275.765 207.575 275.765 204.186V193.911L275.998 193.678L330.933 193.75H331.094V193.911C331.049 200.188 331.022 205.298 331.005 208.822C331.005 210.534 331.005 211.87 331.005 212.803C331.005 213.242 331.005 213.574 331.005 213.825C331.005 214.076 330.843 214.165 330.843 214.165Z" fill="#6FC373"/>
<path d="M280.15 214.165C280.024 214.165 279.917 209.629 279.917 204.034C279.917 198.439 280.024 193.911 280.15 193.911C280.275 193.911 280.383 198.439 280.383 204.034C280.383 209.629 280.275 214.165 280.15 214.165Z" fill="#6FC373"/>
<path d="M285.314 214.165C285.189 214.165 285.081 209.629 285.081 204.034C285.081 198.439 285.189 193.911 285.314 193.911C285.44 193.911 285.547 198.439 285.547 204.034C285.547 209.629 285.449 214.165 285.314 214.165Z" fill="#6FC373"/>
<path d="M290.479 214.165C290.353 214.165 290.245 209.629 290.245 204.034C290.245 198.439 290.353 193.911 290.479 193.911C290.604 193.911 290.712 198.439 290.712 204.034C290.712 209.629 290.613 214.165 290.479 214.165Z" fill="#6FC373"/>
<path d="M295.652 214.165C295.517 214.165 295.419 209.629 295.419 204.034C295.419 198.439 295.517 193.911 295.652 193.911C295.786 193.911 295.885 198.439 295.885 204.034C295.885 209.629 295.759 214.165 295.652 214.165Z" fill="#6FC373"/>
<path d="M300.816 214.165C300.682 214.165 300.583 209.629 300.583 204.034C300.583 198.439 300.682 193.911 300.816 193.911C300.951 193.911 301.049 198.439 301.049 204.034C301.049 209.629 300.942 214.165 300.816 214.165Z" fill="#6FC373"/>
<path d="M305.981 214.165C305.855 214.165 305.747 209.629 305.747 204.034C305.747 198.439 305.855 193.911 305.981 193.911C306.106 193.911 306.214 198.439 306.214 204.034C306.214 209.629 306.106 214.165 305.981 214.165Z" fill="#6FC373"/>
<path d="M311.145 214.165C311.019 214.165 310.912 209.629 310.912 204.034C310.912 198.439 311.019 193.911 311.145 193.911C311.27 193.911 311.378 198.439 311.378 204.034C311.378 209.629 311.279 214.165 311.145 214.165Z" fill="#6FC373"/>
<path d="M316.309 214.165C316.184 214.165 316.076 209.629 316.076 204.034C316.076 198.439 316.184 193.911 316.309 193.911C316.435 193.911 316.543 198.439 316.543 204.034C316.543 209.629 316.444 214.165 316.309 214.165Z" fill="#6FC373"/>
<path d="M321.483 214.165C321.348 214.165 321.241 209.629 321.241 204.034C321.241 198.439 321.348 193.911 321.483 193.911C321.617 193.911 321.716 198.439 321.716 204.034C321.716 209.629 321.608 214.165 321.483 214.165Z" fill="#6FC373"/>
<path d="M326.647 214.165C326.513 214.165 326.414 209.629 326.414 204.034C326.414 198.439 326.513 193.911 326.647 193.911C326.782 193.911 326.88 198.439 326.88 204.034C326.88 209.629 326.773 214.165 326.647 214.165Z" fill="#6FC373"/>
<path d="M240.682 216.783H218.886V243.26H240.682V216.783Z" fill="#D2ECD4"/>
<path d="M301.641 216.783H240.691V243.26H301.641V216.783Z" fill="#D2ECD4"/>
<path opacity="0.4" d="M301.641 216.783H240.691V243.26H301.641V216.783Z" fill="black"/>
<path d="M230.236 243.26C230.111 243.26 230.003 237.378 230.003 230.134C230.003 222.889 230.111 217.017 230.236 217.017C230.362 217.017 230.478 222.889 230.478 230.134C230.478 237.378 230.371 243.26 230.236 243.26Z" fill="#6FC373"/>
<path d="M298.216 240.238C298.216 240.238 298.216 240.104 298.216 239.871C298.216 239.638 298.216 239.261 298.216 238.822C298.216 237.88 298.216 236.526 298.216 234.796C298.216 231.299 298.162 226.26 298.126 219.984L298.288 220.137L243.362 220.217C243.147 220.424 243.64 219.93 243.587 219.984V230.376C243.587 233.765 243.587 237.064 243.587 240.238L243.362 240.014L282.66 240.113L294.128 240.176H297.212H298.019H298.297H298.046H297.266H294.235L282.813 240.238L243.362 240.346H243.138V230.376C243.138 228.681 243.138 226.969 243.138 225.229V219.984C243.138 220.029 243.587 219.536 243.38 219.751L298.306 219.823H298.467V219.984C298.467 226.26 298.395 231.371 298.377 234.895C298.377 236.607 298.377 237.943 298.377 238.876C298.377 239.315 298.377 239.647 298.377 239.898C298.333 240.015 298.279 240.129 298.216 240.238Z" fill="#6FC373"/>
<path d="M247.523 240.238C247.397 240.238 247.29 235.702 247.29 230.107C247.29 224.512 247.397 219.984 247.523 219.984C247.648 219.984 247.756 224.512 247.756 230.107C247.756 235.702 247.657 240.238 247.523 240.238Z" fill="#6FC373"/>
<path d="M252.723 240.238C252.588 240.238 252.49 235.702 252.49 230.107C252.49 224.512 252.588 219.984 252.723 219.984C252.857 219.984 252.956 224.512 252.956 230.107C252.956 235.702 252.821 240.238 252.723 240.238Z" fill="#6FC373"/>
<path d="M257.86 240.238C257.726 240.238 257.627 235.702 257.627 230.107C257.627 224.512 257.726 219.984 257.86 219.984C257.995 219.984 258.094 224.512 258.094 230.107C258.094 235.702 257.986 240.238 257.86 240.238Z" fill="#6FC373"/>
<path d="M263.025 240.238C262.899 240.238 262.792 235.702 262.792 230.107C262.792 224.512 262.899 219.984 263.025 219.984C263.15 219.984 263.258 224.512 263.258 230.107C263.258 235.702 263.15 240.238 263.025 240.238Z" fill="#6FC373"/>
<path d="M268.189 240.238C268.064 240.238 267.956 235.702 267.956 230.107C267.956 224.512 268.064 219.984 268.189 219.984C268.315 219.984 268.422 224.512 268.422 230.107C268.422 235.702 268.315 240.238 268.189 240.238Z" fill="#6FC373"/>
<path d="M273.345 240.238C273.219 240.238 273.112 235.702 273.112 230.107C273.112 224.512 273.219 219.984 273.345 219.984C273.47 219.984 273.578 224.512 273.578 230.107C273.578 235.702 273.488 240.238 273.345 240.238Z" fill="#6FC373"/>
<path d="M278.518 240.238C278.392 240.238 278.285 235.702 278.285 230.107C278.285 224.512 278.392 219.984 278.518 219.984C278.644 219.984 278.76 224.512 278.76 230.107C278.76 235.702 278.652 240.238 278.518 240.238Z" fill="#6FC373"/>
<path d="M283.691 240.238C283.557 240.238 283.458 235.702 283.458 230.107C283.458 224.512 283.557 219.984 283.691 219.984C283.826 219.984 283.924 224.512 283.924 230.107C283.924 235.702 283.817 240.238 283.691 240.238Z" fill="#6FC373"/>
<path d="M288.856 240.238C288.721 240.238 288.623 235.702 288.623 230.107C288.623 224.512 288.721 219.984 288.856 219.984C288.99 219.984 289.089 224.512 289.089 230.107C289.089 235.702 288.981 240.238 288.856 240.238Z" fill="#6FC373"/>
<path d="M294.02 240.238C293.895 240.238 293.787 235.702 293.787 230.107C293.787 224.512 293.895 219.984 294.02 219.984C294.146 219.984 294.253 224.512 294.253 230.107C294.253 235.702 294.146 240.238 294.02 240.238Z" fill="#6FC373"/>
<path d="M301.946 216.676H280.15V243.152H301.946V216.676Z" fill="#3D6B3F"/>
<path d="M362.896 216.676H301.946V243.152H362.896V216.676Z" fill="#3D6B3F"/>
<path d="M291.501 243.143C291.375 243.143 291.268 237.271 291.268 230.026C291.268 222.782 291.375 216.9 291.501 216.9C291.626 216.9 291.734 222.773 291.734 230.026C291.734 237.28 291.626 243.143 291.501 243.143Z" fill="#6FC373"/>
<path d="M301.946 243.143C301.82 243.143 301.713 237.271 301.713 230.026C301.713 222.782 301.82 216.9 301.946 216.9C302.071 216.9 302.179 222.773 302.179 230.026C302.179 237.28 302.08 243.143 301.946 243.143Z" fill="#6FC373"/>
<path d="M359.48 240.122C359.467 240 359.467 239.876 359.48 239.754C359.48 239.494 359.48 239.154 359.48 238.705C359.48 237.764 359.48 236.419 359.48 234.688C359.48 231.183 359.427 226.144 359.391 219.868L359.552 220.029L304.618 220.101L304.851 219.868V230.25C304.851 233.63 304.851 236.93 304.851 240.113L304.627 239.889L343.924 239.996L355.392 240.059H358.476H359.274H359.561H359.301H358.53H355.49L344.077 240.122L304.627 240.22H304.403V239.996C304.403 236.822 304.403 233.523 304.403 230.134V219.886L304.636 219.653L359.57 219.724H359.722V219.886C359.722 226.207 359.66 231.281 359.642 234.796C359.642 236.518 359.642 237.853 359.642 238.786C359.642 239.216 359.642 239.557 359.642 239.808C359.642 240.059 359.48 240.131 359.48 240.122Z" fill="#6FC373"/>
<path d="M308.787 240.122C308.661 240.122 308.554 235.585 308.554 229.999C308.554 224.414 308.661 219.868 308.787 219.868C308.913 219.868 309.02 224.405 309.02 229.999C309.02 235.594 308.913 240.122 308.787 240.122Z" fill="#6FC373"/>
<path d="M313.951 240.122C313.826 240.122 313.718 235.585 313.718 229.999C313.718 224.414 313.826 219.868 313.951 219.868C314.077 219.868 314.184 224.405 314.184 229.999C314.184 235.594 314.077 240.122 313.951 240.122Z" fill="#6FC373"/>
<path d="M319.116 240.122C318.99 240.122 318.883 235.585 318.883 229.999C318.883 224.414 318.99 219.868 319.116 219.868C319.241 219.868 319.349 224.405 319.349 229.999C319.349 235.594 319.25 240.122 319.116 240.122Z" fill="#6FC373"/>
<path d="M324.28 240.122C324.155 240.122 324.047 235.585 324.047 229.999C324.047 224.414 324.155 219.868 324.28 219.868C324.406 219.868 324.513 224.405 324.513 229.999C324.513 235.594 324.45 240.122 324.28 240.122Z" fill="#6FC373"/>
<path d="M329.453 240.122C329.319 240.122 329.22 235.585 329.22 229.999C329.22 224.414 329.319 219.868 329.453 219.868C329.588 219.868 329.687 224.405 329.687 229.999C329.687 235.594 329.579 240.122 329.453 240.122Z" fill="#6FC373"/>
<path d="M334.618 240.122C334.483 240.122 334.385 235.585 334.385 229.999C334.385 224.414 334.483 219.868 334.618 219.868C334.752 219.868 334.851 224.405 334.851 229.999C334.851 235.594 334.743 240.122 334.618 240.122Z" fill="#6FC373"/>
<path d="M339.782 240.122C339.657 240.122 339.549 235.585 339.549 229.999C339.549 224.414 339.657 219.868 339.782 219.868C339.908 219.868 340.015 224.405 340.015 229.999C340.015 235.594 339.908 240.122 339.782 240.122Z" fill="#6FC373"/>
<path d="M344.947 240.122C344.821 240.122 344.713 235.585 344.713 229.999C344.713 224.414 344.821 219.868 344.947 219.868C345.072 219.868 345.18 224.405 345.18 229.999C345.18 235.594 345.072 240.122 344.947 240.122Z" fill="#6FC373"/>
<path d="M350.111 240.122C349.986 240.122 349.878 235.585 349.878 229.999C349.878 224.414 349.986 219.868 350.111 219.868C350.237 219.868 350.344 224.405 350.344 229.999C350.344 235.594 350.246 240.122 350.111 240.122Z" fill="#6FC373"/>
<path d="M355.275 240.122C355.15 240.122 355.042 235.585 355.042 229.999C355.042 224.414 355.15 219.868 355.275 219.868C355.401 219.868 355.517 224.405 355.517 229.999C355.517 235.594 355.41 240.122 355.275 240.122Z" fill="#6FC373"/>
<path d="M109.6 176.616H87.8035V203.093H109.6V176.616Z" fill="#3D6B3F"/>
<path d="M170.559 176.616H109.609V203.093H170.559V176.616Z" fill="#3D6B3F"/>
<path d="M99.1633 203.084C99.0289 203.084 98.9302 197.211 98.9302 189.966C98.9302 182.722 99.0289 176.84 99.1633 176.84C99.2978 176.84 99.3965 182.713 99.3965 189.966C99.3965 197.22 99.2889 203.084 99.1633 203.084Z" fill="#6FC373"/>
<path d="M109.609 203.084C109.483 203.084 109.375 197.211 109.375 189.966C109.375 182.722 109.483 176.84 109.609 176.84C109.734 176.84 109.842 182.713 109.842 189.966C109.842 197.22 109.734 203.084 109.609 203.084Z" fill="#6FC373"/>
<path d="M167.134 200.062C167.134 200.062 167.134 199.936 167.134 199.694C167.134 199.452 167.134 199.094 167.134 198.645C167.134 197.704 167.134 196.359 167.134 194.629C167.134 191.132 167.089 186.084 167.053 179.808L167.206 179.969L112.28 180.041L112.514 179.808V182.426C112.514 183.323 112.514 184.174 112.514 185.044V200.044L112.289 199.82L151.587 199.927L163.046 199.99H166.13H166.937H167.215C167.131 199.999 167.047 199.999 166.964 199.99H166.184H163.153L151.74 200.053L112.289 200.152H111.958V184.91C111.958 184.013 111.958 183.17 111.958 182.291V179.835C111.958 179.889 112.406 179.396 112.2 179.602L167.125 179.682H167.287V179.835C167.287 186.111 167.224 191.231 167.197 194.745C167.197 196.467 167.197 197.803 167.197 198.735C167.197 199.165 167.197 199.506 167.197 199.757C167.189 199.861 167.168 199.963 167.134 200.062Z" fill="#6FC373"/>
<path d="M116.441 200.062C116.306 200.062 116.208 195.534 116.208 189.94C116.208 184.345 116.306 179.808 116.441 179.808C116.575 179.808 116.674 184.345 116.674 189.94C116.674 195.534 116.575 200.062 116.441 200.062Z" fill="#6FC373"/>
<path d="M121.614 200.062C121.48 200.062 121.381 195.534 121.381 189.94C121.381 184.345 121.48 179.808 121.614 179.808C121.749 179.808 121.847 184.345 121.847 189.94C121.847 195.534 121.74 200.062 121.614 200.062Z" fill="#6FC373"/>
<path d="M126.778 200.062C126.653 200.062 126.545 195.534 126.545 189.94C126.545 184.345 126.653 179.808 126.778 179.808C126.904 179.808 127.012 184.345 127.012 189.94C127.012 195.534 126.904 200.062 126.778 200.062Z" fill="#6FC373"/>
<path d="M131.943 200.062C131.817 200.062 131.71 195.534 131.71 189.94C131.71 184.345 131.817 179.808 131.943 179.808C132.068 179.808 132.176 184.345 132.176 189.94C132.176 195.534 132.077 200.062 131.943 200.062Z" fill="#6FC373"/>
<path d="M137.107 200.062C136.982 200.062 136.874 195.534 136.874 189.94C136.874 184.345 136.982 179.808 137.107 179.808C137.233 179.808 137.34 184.345 137.34 189.94C137.34 195.534 137.242 200.062 137.107 200.062Z" fill="#6FC373"/>
<path d="M142.281 200.062C142.146 200.062 142.038 195.534 142.038 189.94C142.038 184.345 142.146 179.808 142.281 179.808C142.415 179.808 142.514 184.345 142.514 189.94C142.514 195.534 142.442 200.062 142.281 200.062Z" fill="#6FC373"/>
<path d="M147.445 200.062C147.31 200.062 147.212 195.534 147.212 189.94C147.212 184.345 147.31 179.808 147.445 179.808C147.579 179.808 147.678 184.345 147.678 189.94C147.678 195.534 147.57 200.062 147.445 200.062Z" fill="#6FC373"/>
<path d="M152.609 200.062C152.475 200.062 152.376 195.534 152.376 189.94C152.376 184.345 152.475 179.808 152.609 179.808C152.744 179.808 152.842 184.345 152.842 189.94C152.842 195.534 152.735 200.062 152.609 200.062Z" fill="#6FC373"/>
<path d="M157.774 200.062C157.648 200.062 157.541 195.534 157.541 189.94C157.541 184.345 157.648 179.808 157.774 179.808C157.899 179.808 158.007 184.345 158.007 189.94C158.007 195.534 157.899 200.062 157.774 200.062Z" fill="#6FC373"/>
<path d="M162.938 200.062C162.813 200.062 162.705 195.534 162.705 189.94C162.705 184.345 162.813 179.808 162.938 179.808C163.064 179.808 163.171 184.345 163.171 189.94C163.171 195.534 163.064 200.062 162.938 200.062Z" fill="#6FC373"/>
<path d="M303.336 189.859H281.539V216.335H303.336V189.859Z" fill="#6FC373"/>
<path d="M364.286 189.859H303.336V216.335H364.286V189.859Z" fill="#6FC373"/>
<path d="M292.89 216.326C292.756 216.326 292.657 210.454 292.657 203.209C292.657 195.965 292.756 190.083 292.89 190.083C293.025 190.083 293.123 195.956 293.123 203.209C293.123 210.463 293.016 216.326 292.89 216.326Z" fill="#3D6B3F"/>
<path d="M303.336 216.326C303.21 216.326 303.103 210.454 303.103 203.209C303.103 195.965 303.21 190.083 303.336 190.083C303.461 190.083 303.569 195.956 303.569 203.209C303.569 210.463 303.461 216.326 303.336 216.326Z" fill="#3D6B3F"/>
<path d="M360.861 213.305C360.861 213.305 360.861 213.179 360.861 212.937C360.861 212.695 360.861 212.336 360.861 211.888C360.861 210.947 360.861 209.602 360.816 207.871C360.816 204.375 360.816 199.327 360.736 193.051L360.888 193.212L305.963 193.284C305.756 193.499 306.241 193.006 306.196 193.06V198.296C306.196 200.026 306.196 201.748 306.196 203.442V213.305L305.972 213.081L345.269 213.188L356.737 213.251H359.812H360.619H360.897C360.814 213.266 360.729 213.266 360.646 213.251H359.875H356.835L345.422 213.314L305.972 213.421H305.748V213.188C305.748 210.014 305.748 206.724 305.748 203.326V193.069C305.694 193.113 306.187 192.62 305.981 192.827L360.906 192.907H361.067V193.06C361.067 199.381 361.005 204.455 360.987 207.97C360.987 209.691 360.987 211.027 360.942 211.96C360.942 212.39 360.942 212.731 360.942 212.982C360.929 213.093 360.902 213.201 360.861 213.305Z" fill="#3D6B3F"/>
<path d="M310.177 213.305C310.042 213.305 309.944 208.777 309.944 203.182C309.944 197.588 310.042 193.051 310.177 193.051C310.311 193.051 310.41 197.588 310.41 203.182C310.41 208.777 310.302 213.305 310.177 213.305Z" fill="#3D6B3F"/>
<path d="M315.341 213.305C315.216 213.305 315.108 208.777 315.108 203.182C315.108 197.588 315.216 193.051 315.341 193.051C315.467 193.051 315.574 197.588 315.574 203.182C315.574 208.777 315.484 213.305 315.341 213.305Z" fill="#3D6B3F"/>
<path d="M320.505 213.305C320.38 213.305 320.272 208.777 320.272 203.182C320.272 197.588 320.38 193.051 320.505 193.051C320.631 193.051 320.738 197.588 320.738 203.182C320.738 208.777 320.631 213.305 320.505 213.305Z" fill="#3D6B3F"/>
<path d="M325.67 213.305C325.544 213.305 325.437 208.777 325.437 203.182C325.437 197.588 325.544 193.051 325.67 193.051C325.795 193.051 325.903 197.588 325.903 203.182C325.903 208.777 325.804 213.305 325.67 213.305Z" fill="#3D6B3F"/>
<path d="M330.834 213.305C330.709 213.305 330.601 208.777 330.601 203.182C330.601 197.588 330.709 193.051 330.834 193.051C330.96 193.051 331.067 197.588 331.067 203.182C331.067 208.777 330.969 213.305 330.834 213.305Z" fill="#3D6B3F"/>
<path d="M336.008 213.305C335.873 213.305 335.774 208.777 335.774 203.182C335.774 197.588 335.873 193.051 336.008 193.051C336.142 193.051 336.241 197.588 336.241 203.182C336.241 208.777 336.106 213.305 336.008 213.305Z" fill="#3D6B3F"/>
<path d="M341.172 213.305C341.037 213.305 340.939 208.777 340.939 203.182C340.939 197.588 341.037 193.051 341.172 193.051C341.306 193.051 341.405 197.588 341.405 203.182C341.405 208.777 341.297 213.305 341.172 213.305Z" fill="#3D6B3F"/>
<path d="M346.336 213.305C346.211 213.305 346.103 208.777 346.103 203.182C346.103 197.588 346.211 193.051 346.336 193.051C346.462 193.051 346.57 197.588 346.57 203.182C346.57 208.777 346.462 213.305 346.336 213.305Z" fill="#3D6B3F"/>
<path d="M351.501 213.305C351.375 213.305 351.268 208.777 351.268 203.182C351.268 197.588 351.375 193.051 351.501 193.051C351.626 193.051 351.734 197.588 351.734 203.182C351.734 208.777 351.635 213.305 351.501 213.305Z" fill="#3D6B3F"/>
<path d="M356.665 213.305C356.539 213.305 356.432 208.777 356.432 203.182C356.432 197.588 356.539 193.051 356.665 193.051C356.791 193.051 356.898 197.588 356.898 203.182C356.898 208.777 356.799 213.305 356.665 213.305Z" fill="#3D6B3F"/>
<path d="M306.752 243.143H284.956V269.62H306.752V243.143Z" fill="#D2ECD4"/>
<path d="M367.711 243.143H306.761V269.62H367.711V243.143Z" fill="#D2ECD4"/>
<path opacity="0.4" d="M367.711 243.143H306.761V269.62H367.711V243.143Z" fill="black"/>
<path d="M296.315 269.62C296.181 269.62 296.082 263.738 296.082 256.494C296.082 249.249 296.181 243.367 296.315 243.367C296.45 243.367 296.548 249.249 296.548 256.494C296.548 263.738 296.441 269.62 296.315 269.62Z" fill="#6FC373"/>
<path d="M364.286 266.598C364.286 266.598 364.286 266.464 364.286 266.231C364.286 265.998 364.286 265.621 364.286 265.173C364.286 264.276 364.286 262.887 364.286 261.156C364.286 257.659 364.241 252.621 364.205 246.344L364.358 246.497L309.433 246.577L309.666 246.344V248.98C309.666 249.877 309.666 250.729 309.666 251.589V266.598L309.433 266.374L348.739 266.473L360.198 266.536H363.282H364.089H364.367H364.116H363.336H360.305L348.892 266.598L309.442 266.706H309.217V256.736C309.217 255.041 309.217 253.329 309.217 251.589V246.344C309.217 246.389 309.666 245.896 309.459 246.111L364.385 246.183H364.546V246.344C364.546 252.621 364.483 257.731 364.457 261.255C364.457 262.967 364.457 264.303 364.457 265.236C364.457 265.666 364.457 266.007 364.457 266.258C364.416 266.379 364.359 266.493 364.286 266.598Z" fill="#6FC373"/>
<path d="M313.602 266.598C313.467 266.598 313.369 262.062 313.369 256.467C313.369 250.872 313.467 246.344 313.602 246.344C313.736 246.344 313.835 250.872 313.835 256.467C313.835 262.062 313.691 266.598 313.602 266.598Z" fill="#6FC373"/>
<path d="M318.766 266.598C318.632 266.598 318.533 262.062 318.533 256.467C318.533 250.872 318.632 246.344 318.766 246.344C318.901 246.344 318.999 250.872 318.999 256.467C318.999 262.062 318.892 266.598 318.766 266.598Z" fill="#6FC373"/>
<path d="M323.931 266.598C323.805 266.598 323.697 262.062 323.697 256.467C323.697 250.872 323.805 246.344 323.931 246.344C324.056 246.344 324.164 250.872 324.164 256.467C324.164 262.062 324.056 266.598 323.931 266.598Z" fill="#6FC373"/>
<path d="M329.095 266.598C328.969 266.598 328.862 262.062 328.862 256.467C328.862 250.872 328.969 246.344 329.095 246.344C329.22 246.344 329.328 250.872 329.328 256.467C329.328 262.062 329.22 266.598 329.095 266.598Z" fill="#6FC373"/>
<path d="M334.259 266.598C334.134 266.598 334.026 262.062 334.026 256.467C334.026 250.872 334.134 246.344 334.259 246.344C334.385 246.344 334.492 250.872 334.492 256.467C334.492 262.062 334.394 266.598 334.259 266.598Z" fill="#6FC373"/>
<path d="M339.424 266.598C339.298 266.598 339.19 262.062 339.19 256.467C339.19 250.872 339.298 246.344 339.424 246.344C339.549 246.344 339.666 250.872 339.666 256.467C339.666 262.062 339.558 266.598 339.424 266.598Z" fill="#6FC373"/>
<path d="M344.597 266.598C344.462 266.598 344.364 262.062 344.364 256.467C344.364 250.872 344.462 246.344 344.597 246.344C344.731 246.344 344.83 250.872 344.83 256.467C344.83 262.062 344.722 266.598 344.597 266.598Z" fill="#6FC373"/>
<path d="M349.761 266.598C349.627 266.598 349.528 262.062 349.528 256.467C349.528 250.872 349.627 246.344 349.761 246.344C349.896 246.344 349.994 250.872 349.994 256.467C349.994 262.062 349.887 266.598 349.761 266.598Z" fill="#6FC373"/>
<path d="M354.935 266.598C354.809 266.598 354.701 262.062 354.701 256.467C354.701 250.872 354.809 246.344 354.935 246.344C355.06 246.344 355.168 250.872 355.168 256.467C355.168 262.062 355.051 266.598 354.935 266.598Z" fill="#6FC373"/>
<path d="M360.09 266.598C359.965 266.598 359.857 262.062 359.857 256.467C359.857 250.872 359.965 246.344 360.09 246.344C360.216 246.344 360.323 250.872 360.323 256.467C360.323 262.062 360.225 266.598 360.09 266.598Z" fill="#6FC373"/>
<path d="M274.483 261.425H274.178H273.282L269.857 261.47L257.242 261.541L215.64 261.613C194.122 261.613 175.293 261.568 165.251 261.497L165.368 261.38C165.368 264.07 165.368 266.186 165.314 267.656C165.314 268.347 165.314 268.894 165.314 269.288C165.314 269.449 165.314 269.593 165.314 269.7C165.314 269.808 165.314 269.844 165.314 269.844C165.314 269.844 165.314 269.799 165.314 269.7V269.288C165.314 268.894 165.314 268.347 165.314 267.656C165.314 266.186 165.314 264.07 165.26 261.38V261.264H165.386C175.454 261.192 194.265 261.147 215.774 261.147L257.376 261.219L269.991 261.29L273.416 261.335H274.313L274.483 261.425Z" fill="#6FC373"/>
<path d="M265.428 268.921C265.117 266.453 265.117 263.956 265.428 261.488C265.739 263.956 265.739 266.453 265.428 268.921Z" fill="#6FC373"/>
<path d="M250.168 268.921C249.857 266.453 249.857 263.956 250.168 261.488C250.479 263.956 250.479 266.453 250.168 268.921Z" fill="#6FC373"/>
<path d="M234.908 268.921C234.597 266.453 234.597 263.956 234.908 261.488C235.219 263.956 235.219 266.453 234.908 268.921Z" fill="#6FC373"/>
<path d="M219.639 268.921C219.328 266.453 219.328 263.956 219.639 261.488C219.949 263.956 219.949 266.453 219.639 268.921Z" fill="#6FC373"/>
<path d="M204.379 268.921C204.068 266.453 204.068 263.956 204.379 261.488C204.689 263.956 204.689 266.453 204.379 268.921Z" fill="#6FC373"/>
<path d="M189.119 268.921C188.796 266.453 188.796 263.955 189.119 261.488C189.429 263.956 189.429 266.453 189.119 268.921Z" fill="#6FC373"/>
<path d="M173.823 268.921C173.512 266.453 173.512 263.956 173.823 261.488C174.134 263.956 174.134 266.453 173.823 268.921Z" fill="#6FC373"/>
<path d="M383.706 268.643C383.694 268.487 383.694 268.332 383.706 268.176C383.706 267.848 383.706 267.39 383.706 266.805C383.706 265.558 383.706 263.765 383.653 261.425L383.76 261.542C374.158 261.613 354.89 261.658 332.744 261.658L291.581 261.595L279.11 261.515H275.712H274.815C274.717 261.526 274.617 261.526 274.519 261.515H274.815H275.712L279.11 261.47L291.581 261.398L332.744 261.326C354.89 261.326 374.158 261.38 383.76 261.452H383.877V261.425C383.877 263.738 383.877 265.531 383.877 266.805C383.877 267.387 383.877 267.845 383.877 268.176C383.833 268.336 383.776 268.492 383.706 268.643Z" fill="#6FC373"/>
<path d="M344.176 268.947C343.865 266.48 343.865 263.982 344.176 261.515C344.486 263.982 344.486 266.48 344.176 268.947Z" fill="#6FC373"/>
<path d="M328.871 268.947C328.56 266.48 328.56 263.982 328.871 261.515C329.181 263.982 329.181 266.48 328.871 268.947Z" fill="#6FC373"/>
<path d="M313.602 268.947C313.291 266.48 313.291 263.982 313.602 261.515C313.924 263.982 313.924 266.48 313.602 268.947Z" fill="#6FC373"/>
<path d="M298.342 268.947C298.031 266.48 298.031 263.982 298.342 261.515C298.653 263.982 298.653 266.48 298.342 268.947Z" fill="#6FC373"/>
<path d="M283.082 268.947C282.771 266.48 282.771 263.982 283.082 261.515C283.392 263.982 283.392 266.48 283.082 268.947Z" fill="#6FC373"/>
<path d="M163.306 257.408C163.294 257.253 163.294 257.097 163.306 256.942C163.306 256.607 163.306 256.15 163.306 255.57C163.306 254.324 163.306 252.531 163.252 250.191L163.359 250.298C153.219 250.37 132.266 250.424 108.12 250.424C84.9075 250.424 64.6624 250.379 54.1364 250.307L54.253 250.191C54.253 252.88 54.253 255.014 54.1992 256.467C54.1992 257.166 54.1992 257.704 54.1992 258.099C54.1992 258.493 54.1992 258.654 54.1992 258.654C54.1895 258.469 54.1895 258.284 54.1992 258.099C54.1992 257.704 54.1992 257.202 54.1992 256.467C54.1992 255.014 54.1992 252.88 54.1454 250.191V250.074H54.2619C64.7879 250.002 85.033 249.958 108.246 249.958C132.391 249.958 153.345 250.011 163.485 250.083H163.593V250.191C163.593 252.504 163.593 254.297 163.593 255.57C163.593 256.168 163.593 256.625 163.593 256.942C163.515 257.108 163.419 257.264 163.306 257.408Z" fill="#6FC373"/>
<path d="M154.259 257.704C153.948 255.236 153.948 252.739 154.259 250.271C154.57 252.739 154.57 255.236 154.259 257.704Z" fill="#6FC373"/>
<path d="M138.999 257.704C138.688 255.236 138.688 252.739 138.999 250.271C139.31 252.739 139.31 255.236 138.999 257.704Z" fill="#6FC373"/>
<path d="M123.73 257.704C123.419 255.236 123.419 252.739 123.73 250.271C124.041 252.739 124.041 255.236 123.73 257.704Z" fill="#6FC373"/>
<path d="M108.47 257.704C108.159 255.236 108.159 252.739 108.47 250.271C108.781 252.739 108.781 255.236 108.47 257.704Z" fill="#6FC373"/>
<path d="M93.2099 257.704C92.8991 255.236 92.8991 252.739 93.2099 250.271C93.5207 252.739 93.5207 255.236 93.2099 257.704Z" fill="#6FC373"/>
<path d="M77.9409 257.704C77.6301 255.236 77.6301 252.739 77.9409 250.271C78.2518 252.739 78.2518 255.236 77.9409 257.704Z" fill="#6FC373"/>
<path d="M62.645 257.704C62.3342 255.236 62.3342 252.739 62.645 250.271C62.9559 252.739 62.9559 255.236 62.645 257.704Z" fill="#6FC373"/>
<path d="M109.6 203.093H87.8035V229.569H109.6V203.093Z" fill="#D2ECD4"/>
<path d="M170.559 203.093H109.609V229.569H170.559V203.093Z" fill="#D2ECD4"/>
<path opacity="0.4" d="M170.559 203.093H109.609V229.569H170.559V203.093Z" fill="black"/>
<path d="M99.1633 229.569C99.0289 229.569 98.9302 223.687 98.9302 216.443C98.9302 209.198 99.0289 203.317 99.1633 203.317C99.2978 203.317 99.3965 209.198 99.3965 216.443C99.3965 223.687 99.2889 229.569 99.1633 229.569Z" fill="#6FC373"/>
<path d="M167.134 226.547C167.134 226.547 167.134 226.413 167.134 226.18C167.134 225.947 167.134 225.57 167.134 225.122C167.134 224.225 167.134 222.836 167.134 221.105C167.134 217.608 167.089 212.57 167.053 206.293L167.206 206.446L112.28 206.527L112.514 206.293V208.929C112.514 209.826 112.514 210.678 112.514 211.538V226.547L112.289 226.323L151.587 226.422L163.046 226.485H166.13H166.937C167.029 226.477 167.122 226.477 167.215 226.485H166.964H166.184H163.153L151.74 226.547L112.289 226.655H111.958V211.413C111.958 210.516 111.958 209.674 111.958 208.804V206.168C111.958 206.213 112.406 205.72 112.2 205.935L167.125 206.006H167.287V206.168C167.287 212.444 167.224 217.555 167.197 221.078C167.197 222.791 167.197 224.127 167.197 225.059C167.197 225.489 167.197 225.83 167.197 226.081C167.203 226.239 167.182 226.397 167.134 226.547Z" fill="#6FC373"/>
<path d="M116.441 226.548C116.306 226.548 116.208 222.011 116.208 216.416C116.208 210.821 116.306 206.293 116.441 206.293C116.575 206.293 116.674 210.821 116.674 216.416C116.674 222.011 116.575 226.548 116.441 226.548Z" fill="#6FC373"/>
<path d="M121.614 226.548C121.48 226.548 121.381 222.011 121.381 216.416C121.381 210.821 121.48 206.293 121.614 206.293C121.749 206.293 121.847 210.821 121.847 216.416C121.847 222.011 121.74 226.548 121.614 226.548Z" fill="#6FC373"/>
<path d="M126.778 226.548C126.653 226.548 126.545 222.011 126.545 216.416C126.545 210.821 126.653 206.293 126.778 206.293C126.904 206.293 127.012 210.821 127.012 216.416C127.012 222.011 126.904 226.548 126.778 226.548Z" fill="#6FC373"/>
<path d="M131.943 226.548C131.817 226.548 131.71 222.011 131.71 216.416C131.71 210.821 131.817 206.293 131.943 206.293C132.068 206.293 132.176 210.821 132.176 216.416C132.176 222.011 132.077 226.548 131.943 226.548Z" fill="#6FC373"/>
<path d="M137.107 226.548C136.982 226.548 136.874 222.011 136.874 216.416C136.874 210.821 136.982 206.293 137.107 206.293C137.233 206.293 137.34 210.821 137.34 216.416C137.34 222.011 137.242 226.548 137.107 226.548Z" fill="#6FC373"/>
<path d="M142.281 226.548C142.146 226.548 142.038 222.011 142.038 216.416C142.038 210.821 142.146 206.293 142.281 206.293C142.415 206.293 142.514 210.821 142.514 216.416C142.514 222.011 142.442 226.548 142.281 226.548Z" fill="#6FC373"/>
<path d="M147.445 226.548C147.31 226.548 147.212 222.011 147.212 216.416C147.212 210.821 147.31 206.293 147.445 206.293C147.579 206.293 147.678 210.821 147.678 216.416C147.678 222.011 147.57 226.548 147.445 226.548Z" fill="#6FC373"/>
<path d="M152.609 226.548C152.475 226.548 152.376 222.011 152.376 216.416C152.376 210.821 152.475 206.293 152.609 206.293C152.744 206.293 152.842 210.821 152.842 216.416C152.842 222.011 152.735 226.548 152.609 226.548Z" fill="#6FC373"/>
<path d="M157.774 226.548C157.648 226.548 157.541 222.011 157.541 216.416C157.541 210.821 157.648 206.293 157.774 206.293C157.899 206.293 158.007 210.821 158.007 216.416C158.007 222.011 157.899 226.548 157.774 226.548Z" fill="#6FC373"/>
<path d="M162.938 226.548C162.813 226.548 162.705 222.011 162.705 216.416C162.705 210.821 162.813 206.293 162.938 206.293C163.064 206.293 163.171 210.821 163.171 216.416C163.171 222.011 163.064 226.548 162.938 226.548Z" fill="#6FC373"/>
<path d="M384.477 269.333V208.634H444.666V269.889" fill="#3D6B3F"/>
<path d="M428.608 262.035H425.254V269.333H428.608V262.035Z" fill="#6FC373"/>
<path d="M391.453 252.199H389.346V257.408H391.453V252.199Z" fill="#6FC373"/>
<path d="M391.453 261.425H389.346V266.634H391.453V261.425Z" fill="#6FC373"/>
<path d="M403.548 252.199H401.441V257.408H403.548V252.199Z" fill="#6FC373"/>
<path d="M403.548 261.344H401.441V266.553H403.548V261.344Z" fill="#6FC373"/>
<path d="M415.643 252.199H413.536V257.408H415.643V252.199Z" fill="#6FC373"/>
<path d="M415.643 261.272H413.536V266.482H415.643V261.272Z" fill="#6FC373"/>
<path d="M427.738 252.199H425.631V257.408H427.738V252.199Z" fill="#6FC373"/>
<path d="M439.824 252.199H437.717V257.408H439.824V252.199Z" fill="#6FC373"/>
<path d="M439.824 260.968H437.717V266.177H439.824V260.968Z" fill="#6FC373"/>
<path d="M428.357 228.968H425.003V236.267H428.357V228.968Z" fill="#6FC373"/>
<path d="M391.453 214.99H389.346V220.199H391.453V214.99Z" fill="#6FC373"/>
<path d="M391.453 224.216H389.346V229.426H391.453V224.216Z" fill="#6FC373"/>
<path d="M403.548 214.99H401.441V220.199H403.548V214.99Z" fill="#6FC373"/>
<path d="M403.548 224.135H401.441V229.345H403.548V224.135Z" fill="#6FC373"/>
<path d="M415.643 214.99H413.536V220.199H415.643V214.99Z" fill="#6FC373"/>
<path d="M415.643 224.064H413.536V229.273H415.643V224.064Z" fill="#6FC373"/>
<path d="M427.738 214.99H425.631V220.199H427.738V214.99Z" fill="#6FC373"/>
<path d="M439.824 214.99H437.717V220.199H439.824V214.99Z" fill="#6FC373"/>
<path d="M439.824 223.759H437.717V228.968H439.824V223.759Z" fill="#6FC373"/>
<path d="M107.134 326.76C107.134 326.76 116.548 292.259 82.5136 284.405C50.6846 277.062 51.4646 257.408 51.4646 257.408H165.493V269.333H465.61C465.61 269.333 463.978 307.985 435.816 326.76" fill="#3D6B3F"/>
<path d="M107.932 310.567H451.865C451.865 310.567 442.362 323.424 435.816 326.76H107.134C107.893 321.398 108.16 315.978 107.932 310.567Z" fill="#6FC373"/>
<path d="M442.98 236.267C442.94 236.045 442.925 235.819 442.935 235.594C442.935 235.119 442.935 234.473 442.935 233.666L443.025 233.756C437.905 233.846 425.568 233.899 411.169 233.899C396.77 233.899 384.424 233.846 379.304 233.756L379.394 233.666C379.394 234.473 379.394 235.119 379.349 235.594C379.359 235.819 379.344 236.045 379.304 236.267C379.276 236.043 379.261 235.819 379.259 235.594C379.259 235.119 379.259 234.473 379.214 233.666V233.631H379.304C384.424 233.55 396.761 233.487 411.169 233.487C425.577 233.487 437.905 233.55 443.025 233.631H443.115C443.115 234.437 443.115 235.083 443.115 235.558C443.091 235.798 443.046 236.035 442.98 236.267Z" fill="#6FC373"/>
<path d="M387.212 236.966C387.087 236.966 386.979 236.204 386.979 235.253C386.979 234.303 387.087 233.541 387.212 233.541C387.338 233.541 387.445 234.312 387.445 235.253C387.445 236.195 387.311 236.966 387.212 236.966Z" fill="#6FC373"/>
<path d="M395.604 236.966C395.479 236.966 395.371 236.204 395.371 235.253C395.371 234.303 395.479 233.541 395.604 233.541C395.73 233.541 395.837 234.312 395.837 235.253C395.837 236.195 395.739 236.966 395.604 236.966Z" fill="#6FC373"/>
<path d="M404.041 236.966C403.907 236.966 403.808 236.204 403.808 235.253C403.808 234.303 403.907 233.541 404.041 233.541C404.176 233.541 404.274 234.312 404.274 235.253C404.274 236.195 404.167 236.966 404.041 236.966Z" fill="#6FC373"/>
<path d="M412.469 236.966C412.335 236.966 412.236 236.204 412.236 235.253C412.236 234.303 412.335 233.541 412.469 233.541C412.604 233.541 412.702 234.312 412.702 235.253C412.702 236.195 412.595 236.966 412.469 236.966Z" fill="#6FC373"/>
<path d="M420.897 236.966C420.772 236.966 420.664 236.204 420.664 235.253C420.664 234.303 420.772 233.541 420.897 233.541C421.023 233.541 421.13 234.312 421.13 235.253C421.13 236.195 421.023 236.966 420.897 236.966Z" fill="#6FC373"/>
<path d="M429.352 236.966C429.226 236.966 429.119 236.204 429.119 235.253C429.119 234.303 429.226 233.541 429.352 233.541C429.478 233.541 429.585 234.312 429.585 235.253C429.585 236.195 429.46 236.966 429.352 236.966Z" fill="#6FC373"/>
<path d="M437.753 236.966C437.627 236.966 437.52 236.204 437.52 235.253C437.52 234.303 437.627 233.541 437.753 233.541C437.879 233.541 437.986 234.312 437.986 235.253C437.986 236.195 437.888 236.966 437.753 236.966Z" fill="#6FC373"/>
<path d="M444.657 236.267H378.004V242.919H444.657V236.267Z" fill="#6FC373"/>
<path opacity="0.4" d="M394.6 199.336H401.853L402.651 203.944H394.6V199.336Z" fill="#BDE3BF"/>
<path d="M465.323 268.643C465.314 268.484 465.314 268.326 465.323 268.167C465.323 267.818 465.323 267.36 465.323 266.769C465.323 265.513 465.323 263.72 465.26 261.452L465.386 261.577C457.317 261.649 442.81 261.685 426.303 261.685L393.578 261.622L383.626 261.542H380.936H380.236C380.156 261.553 380.075 261.553 379.994 261.542H380.236H380.936L383.626 261.497L393.542 261.425L426.268 261.353C442.774 261.353 457.263 261.398 465.35 261.461H465.476V261.425C465.476 263.693 465.476 265.487 465.413 266.742C465.413 267.334 465.413 267.791 465.413 268.14C465.401 268.311 465.371 268.479 465.323 268.643Z" fill="#6FC373"/>
<path d="M456.25 268.947C455.939 266.48 455.939 263.982 456.25 261.515C456.561 263.982 456.561 266.48 456.25 268.947Z" fill="#6FC373"/>
<path d="M441.008 268.947C440.685 266.48 440.685 263.982 441.008 261.515C441.318 263.982 441.318 266.48 441.008 268.947Z" fill="#6FC373"/>
<path d="M425.765 268.947C425.455 266.48 425.455 263.982 425.765 261.515C426.076 263.982 426.076 266.48 425.765 268.947Z" fill="#6FC373"/>
<path d="M410.523 268.947C410.213 266.48 410.213 263.982 410.523 261.515C410.834 263.982 410.834 266.48 410.523 268.947Z" fill="#6FC373"/>
<path d="M395.219 268.947C394.908 266.48 394.908 263.982 395.219 261.515C395.541 263.982 395.541 266.48 395.219 268.947Z" fill="#6FC373"/>
<path d="M379.958 268.947C379.648 266.48 379.648 263.982 379.958 261.515C380.269 263.982 380.269 266.48 379.958 268.947Z" fill="#6FC373"/>
<path d="M364.699 268.947C364.388 266.48 364.388 263.982 364.699 261.515C365.009 263.982 365.009 266.48 364.699 268.947Z" fill="#6FC373"/>
</svg>
