<svg width="14" height="14" viewBox="0 0 14 14" fill="none" xmlns="http://www.w3.org/2000/svg">
<path d="M6.99992 3.49992C7.64159 3.49992 8.16659 4.02492 8.16659 4.66659C8.16659 5.30825 7.64159 5.83325 6.99992 5.83325C6.35825 5.83325 5.83325 5.30825 5.83325 4.66659C5.83325 4.02492 6.35825 3.49992 6.99992 3.49992ZM6.99992 9.33325C8.57492 9.33325 10.3833 10.0858 10.4999 10.4999H3.49992C3.63409 10.0799 5.43075 9.33325 6.99992 9.33325ZM6.99992 2.33325C5.71075 2.33325 4.66659 3.37742 4.66659 4.66659C4.66659 5.95575 5.71075 6.99992 6.99992 6.99992C8.28909 6.99992 9.33325 5.95575 9.33325 4.66659C9.33325 3.37742 8.28909 2.33325 6.99992 2.33325ZM6.99992 8.16659C5.44242 8.16659 2.33325 8.94825 2.33325 10.4999V11.6666H11.6666V10.4999C11.6666 8.94825 8.55742 8.16659 6.99992 8.16659Z" fill="#6E6E78"/>
<path d="M6.99992 3.49992C7.64159 3.49992 8.16659 4.02492 8.16659 4.66659C8.16659 5.30825 7.64159 5.83325 6.99992 5.83325C6.35825 5.83325 5.83325 5.30825 5.83325 4.66659C5.83325 4.02492 6.35825 3.49992 6.99992 3.49992ZM6.99992 9.33325C8.57492 9.33325 10.3833 10.0858 10.4999 10.4999H3.49992C3.63409 10.0799 5.43075 9.33325 6.99992 9.33325ZM6.99992 2.33325C5.71075 2.33325 4.66659 3.37742 4.66659 4.66659C4.66659 5.95575 5.71075 6.99992 6.99992 6.99992C8.28909 6.99992 9.33325 5.95575 9.33325 4.66659C9.33325 3.37742 8.28909 2.33325 6.99992 2.33325ZM6.99992 8.16659C5.44242 8.16659 2.33325 8.94825 2.33325 10.4999V11.6666H11.6666V10.4999C11.6666 8.94825 8.55742 8.16659 6.99992 8.16659Z" fill="black" fill-opacity="0.2"/>
<path d="M6.99992 3.49992C7.64159 3.49992 8.16659 4.02492 8.16659 4.66659C8.16659 5.30825 7.64159 5.83325 6.99992 5.83325C6.35825 5.83325 5.83325 5.30825 5.83325 4.66659C5.83325 4.02492 6.35825 3.49992 6.99992 3.49992ZM6.99992 9.33325C8.57492 9.33325 10.3833 10.0858 10.4999 10.4999H3.49992C3.63409 10.0799 5.43075 9.33325 6.99992 9.33325ZM6.99992 2.33325C5.71075 2.33325 4.66659 3.37742 4.66659 4.66659C4.66659 5.95575 5.71075 6.99992 6.99992 6.99992C8.28909 6.99992 9.33325 5.95575 9.33325 4.66659C9.33325 3.37742 8.28909 2.33325 6.99992 2.33325ZM6.99992 8.16659C5.44242 8.16659 2.33325 8.94825 2.33325 10.4999V11.6666H11.6666V10.4999C11.6666 8.94825 8.55742 8.16659 6.99992 8.16659Z" fill="black" fill-opacity="0.2"/>
<path d="M6.99992 3.49992C7.64159 3.49992 8.16659 4.02492 8.16659 4.66659C8.16659 5.30825 7.64159 5.83325 6.99992 5.83325C6.35825 5.83325 5.83325 5.30825 5.83325 4.66659C5.83325 4.02492 6.35825 3.49992 6.99992 3.49992ZM6.99992 9.33325C8.57492 9.33325 10.3833 10.0858 10.4999 10.4999H3.49992C3.63409 10.0799 5.43075 9.33325 6.99992 9.33325ZM6.99992 2.33325C5.71075 2.33325 4.66659 3.37742 4.66659 4.66659C4.66659 5.95575 5.71075 6.99992 6.99992 6.99992C8.28909 6.99992 9.33325 5.95575 9.33325 4.66659C9.33325 3.37742 8.28909 2.33325 6.99992 2.33325ZM6.99992 8.16659C5.44242 8.16659 2.33325 8.94825 2.33325 10.4999V11.6666H11.6666V10.4999C11.6666 8.94825 8.55742 8.16659 6.99992 8.16659Z" fill="black" fill-opacity="0.2"/>
</svg>
