<svg width="30" height="30" viewBox="0 0 30 30" fill="none" xmlns="http://www.w3.org/2000/svg">
<g id="photo_camera">
<path id="Vector" d="M17.3799 6.77705L19.5371 9.13466H24.3113V23.2804H5.45039V9.13466H10.2246L12.3818 6.77705H17.3799ZM18.4173 4.41943H11.3444L9.18721 6.77705H5.45039C4.1537 6.77705 3.09277 7.83798 3.09277 9.13466V23.2804C3.09277 24.577 4.1537 25.638 5.45039 25.638H24.3113C25.608 25.638 26.6689 24.577 26.6689 23.2804V9.13466C26.6689 7.83798 25.608 6.77705 24.3113 6.77705H20.5745L18.4173 4.41943ZM14.8808 12.6711C16.8259 12.6711 18.4173 14.2625 18.4173 16.2075C18.4173 18.1525 16.8259 19.7439 14.8808 19.7439C12.9358 19.7439 11.3444 18.1525 11.3444 16.2075C11.3444 14.2625 12.9358 12.6711 14.8808 12.6711ZM14.8808 10.3135C11.6273 10.3135 8.98681 12.954 8.98681 16.2075C8.98681 19.461 11.6273 22.1015 14.8808 22.1015C18.1344 22.1015 20.7749 19.461 20.7749 16.2075C20.7749 12.954 18.1344 10.3135 14.8808 10.3135Z" fill="white"/>
</g>
</svg>
