<svg width="14" height="14" viewBox="0 0 14 14" fill="none" xmlns="http://www.w3.org/2000/svg">
<path d="M7.00008 1.16669C4.74258 1.16669 2.91675 2.99252 2.91675 5.25002C2.91675 8.31252 7.00008 12.8334 7.00008 12.8334C7.00008 12.8334 11.0834 8.31252 11.0834 5.25002C11.0834 2.99252 9.25758 1.16669 7.00008 1.16669ZM4.08341 5.25002C4.08341 3.64002 5.39008 2.33335 7.00008 2.33335C8.61008 2.33335 9.91675 3.64002 9.91675 5.25002C9.91675 6.93002 8.23675 9.44419 7.00008 11.0134C5.78675 9.45585 4.08341 6.91252 4.08341 5.25002Z" fill="#6E6E78"/>
<path d="M7.00008 1.16669C4.74258 1.16669 2.91675 2.99252 2.91675 5.25002C2.91675 8.31252 7.00008 12.8334 7.00008 12.8334C7.00008 12.8334 11.0834 8.31252 11.0834 5.25002C11.0834 2.99252 9.25758 1.16669 7.00008 1.16669ZM4.08341 5.25002C4.08341 3.64002 5.39008 2.33335 7.00008 2.33335C8.61008 2.33335 9.91675 3.64002 9.91675 5.25002C9.91675 6.93002 8.23675 9.44419 7.00008 11.0134C5.78675 9.45585 4.08341 6.91252 4.08341 5.25002Z" fill="black" fill-opacity="0.2"/>
<path d="M7.00008 1.16669C4.74258 1.16669 2.91675 2.99252 2.91675 5.25002C2.91675 8.31252 7.00008 12.8334 7.00008 12.8334C7.00008 12.8334 11.0834 8.31252 11.0834 5.25002C11.0834 2.99252 9.25758 1.16669 7.00008 1.16669ZM4.08341 5.25002C4.08341 3.64002 5.39008 2.33335 7.00008 2.33335C8.61008 2.33335 9.91675 3.64002 9.91675 5.25002C9.91675 6.93002 8.23675 9.44419 7.00008 11.0134C5.78675 9.45585 4.08341 6.91252 4.08341 5.25002Z" fill="black" fill-opacity="0.2"/>
<path d="M7.00008 1.16669C4.74258 1.16669 2.91675 2.99252 2.91675 5.25002C2.91675 8.31252 7.00008 12.8334 7.00008 12.8334C7.00008 12.8334 11.0834 8.31252 11.0834 5.25002C11.0834 2.99252 9.25758 1.16669 7.00008 1.16669ZM4.08341 5.25002C4.08341 3.64002 5.39008 2.33335 7.00008 2.33335C8.61008 2.33335 9.91675 3.64002 9.91675 5.25002C9.91675 6.93002 8.23675 9.44419 7.00008 11.0134C5.78675 9.45585 4.08341 6.91252 4.08341 5.25002Z" fill="black" fill-opacity="0.2"/>
<path d="M7.00008 6.70835C7.8055 6.70835 8.45841 6.05544 8.45841 5.25002C8.45841 4.4446 7.8055 3.79169 7.00008 3.79169C6.19467 3.79169 5.54175 4.4446 5.54175 5.25002C5.54175 6.05544 6.19467 6.70835 7.00008 6.70835Z" fill="#6E6E78"/>
<path d="M7.00008 6.70835C7.8055 6.70835 8.45841 6.05544 8.45841 5.25002C8.45841 4.4446 7.8055 3.79169 7.00008 3.79169C6.19467 3.79169 5.54175 4.4446 5.54175 5.25002C5.54175 6.05544 6.19467 6.70835 7.00008 6.70835Z" fill="black" fill-opacity="0.2"/>
<path d="M7.00008 6.70835C7.8055 6.70835 8.45841 6.05544 8.45841 5.25002C8.45841 4.4446 7.8055 3.79169 7.00008 3.79169C6.19467 3.79169 5.54175 4.4446 5.54175 5.25002C5.54175 6.05544 6.19467 6.70835 7.00008 6.70835Z" fill="black" fill-opacity="0.2"/>
<path d="M7.00008 6.70835C7.8055 6.70835 8.45841 6.05544 8.45841 5.25002C8.45841 4.4446 7.8055 3.79169 7.00008 3.79169C6.19467 3.79169 5.54175 4.4446 5.54175 5.25002C5.54175 6.05544 6.19467 6.70835 7.00008 6.70835Z" fill="black" fill-opacity="0.2"/>
</svg>
