<svg width="14" height="14" viewBox="0 0 14 14" fill="none" xmlns="http://www.w3.org/2000/svg">
<g clip-path="url(#clip0_14_19169)">
<path d="M6.99992 4.66668C5.71075 4.66668 4.66659 5.71084 4.66659 7.00001C4.66659 8.28918 5.71075 9.33334 6.99992 9.33334C8.28909 9.33334 9.33325 8.28918 9.33325 7.00001C9.33325 5.71084 8.28909 4.66668 6.99992 4.66668ZM12.2149 6.41668C11.9466 3.98418 10.0158 2.05334 7.58325 1.78501V0.583344H6.41659V1.78501C3.98409 2.05334 2.05325 3.98418 1.78492 6.41668H0.583252V7.58334H1.78492C2.05325 10.0158 3.98409 11.9467 6.41659 12.215V13.4167H7.58325V12.215C10.0158 11.9467 11.9466 10.0158 12.2149 7.58334H13.4166V6.41668H12.2149ZM6.99992 11.0833C4.74242 11.0833 2.91659 9.25751 2.91659 7.00001C2.91659 4.74251 4.74242 2.91668 6.99992 2.91668C9.25742 2.91668 11.0833 4.74251 11.0833 7.00001C11.0833 9.25751 9.25742 11.0833 6.99992 11.0833Z" fill="#6E6E78"/>
<path d="M6.99992 4.66668C5.71075 4.66668 4.66659 5.71084 4.66659 7.00001C4.66659 8.28918 5.71075 9.33334 6.99992 9.33334C8.28909 9.33334 9.33325 8.28918 9.33325 7.00001C9.33325 5.71084 8.28909 4.66668 6.99992 4.66668ZM12.2149 6.41668C11.9466 3.98418 10.0158 2.05334 7.58325 1.78501V0.583344H6.41659V1.78501C3.98409 2.05334 2.05325 3.98418 1.78492 6.41668H0.583252V7.58334H1.78492C2.05325 10.0158 3.98409 11.9467 6.41659 12.215V13.4167H7.58325V12.215C10.0158 11.9467 11.9466 10.0158 12.2149 7.58334H13.4166V6.41668H12.2149ZM6.99992 11.0833C4.74242 11.0833 2.91659 9.25751 2.91659 7.00001C2.91659 4.74251 4.74242 2.91668 6.99992 2.91668C9.25742 2.91668 11.0833 4.74251 11.0833 7.00001C11.0833 9.25751 9.25742 11.0833 6.99992 11.0833Z" fill="black" fill-opacity="0.2"/>
<path d="M6.99992 4.66668C5.71075 4.66668 4.66659 5.71084 4.66659 7.00001C4.66659 8.28918 5.71075 9.33334 6.99992 9.33334C8.28909 9.33334 9.33325 8.28918 9.33325 7.00001C9.33325 5.71084 8.28909 4.66668 6.99992 4.66668ZM12.2149 6.41668C11.9466 3.98418 10.0158 2.05334 7.58325 1.78501V0.583344H6.41659V1.78501C3.98409 2.05334 2.05325 3.98418 1.78492 6.41668H0.583252V7.58334H1.78492C2.05325 10.0158 3.98409 11.9467 6.41659 12.215V13.4167H7.58325V12.215C10.0158 11.9467 11.9466 10.0158 12.2149 7.58334H13.4166V6.41668H12.2149ZM6.99992 11.0833C4.74242 11.0833 2.91659 9.25751 2.91659 7.00001C2.91659 4.74251 4.74242 2.91668 6.99992 2.91668C9.25742 2.91668 11.0833 4.74251 11.0833 7.00001C11.0833 9.25751 9.25742 11.0833 6.99992 11.0833Z" fill="black" fill-opacity="0.2"/>
<path d="M6.99992 4.66668C5.71075 4.66668 4.66659 5.71084 4.66659 7.00001C4.66659 8.28918 5.71075 9.33334 6.99992 9.33334C8.28909 9.33334 9.33325 8.28918 9.33325 7.00001C9.33325 5.71084 8.28909 4.66668 6.99992 4.66668ZM12.2149 6.41668C11.9466 3.98418 10.0158 2.05334 7.58325 1.78501V0.583344H6.41659V1.78501C3.98409 2.05334 2.05325 3.98418 1.78492 6.41668H0.583252V7.58334H1.78492C2.05325 10.0158 3.98409 11.9467 6.41659 12.215V13.4167H7.58325V12.215C10.0158 11.9467 11.9466 10.0158 12.2149 7.58334H13.4166V6.41668H12.2149ZM6.99992 11.0833C4.74242 11.0833 2.91659 9.25751 2.91659 7.00001C2.91659 4.74251 4.74242 2.91668 6.99992 2.91668C9.25742 2.91668 11.0833 4.74251 11.0833 7.00001C11.0833 9.25751 9.25742 11.0833 6.99992 11.0833Z" fill="black" fill-opacity="0.2"/>
</g>
<defs>
<clipPath id="clip0_14_19169">
<rect width="14" height="14" fill="white"/>
</clipPath>
</defs>
</svg>
