<svg width="14" height="14" viewBox="0 0 14 14" fill="none" xmlns="http://www.w3.org/2000/svg">
<path d="M6.99425 1.16666C3.77425 1.16666 1.16675 3.77999 1.16675 6.99999C1.16675 10.22 3.77425 12.8333 6.99425 12.8333C10.2201 12.8333 12.8334 10.22 12.8334 6.99999C12.8334 3.77999 10.2201 1.16666 6.99425 1.16666ZM7.00008 11.6667C4.42175 11.6667 2.33341 9.57832 2.33341 6.99999C2.33341 4.42166 4.42175 2.33332 7.00008 2.33332C9.57841 2.33332 11.6667 4.42166 11.6667 6.99999C11.6667 9.57832 9.57841 11.6667 7.00008 11.6667ZM7.29175 4.08332H6.41675V7.58332L9.47925 9.42082L9.91675 8.70332L7.29175 7.14582V4.08332Z" fill="#6E6E78"/>
<path d="M6.99425 1.16666C3.77425 1.16666 1.16675 3.77999 1.16675 6.99999C1.16675 10.22 3.77425 12.8333 6.99425 12.8333C10.2201 12.8333 12.8334 10.22 12.8334 6.99999C12.8334 3.77999 10.2201 1.16666 6.99425 1.16666ZM7.00008 11.6667C4.42175 11.6667 2.33341 9.57832 2.33341 6.99999C2.33341 4.42166 4.42175 2.33332 7.00008 2.33332C9.57841 2.33332 11.6667 4.42166 11.6667 6.99999C11.6667 9.57832 9.57841 11.6667 7.00008 11.6667ZM7.29175 4.08332H6.41675V7.58332L9.47925 9.42082L9.91675 8.70332L7.29175 7.14582V4.08332Z" fill="black" fill-opacity="0.2"/>
<path d="M6.99425 1.16666C3.77425 1.16666 1.16675 3.77999 1.16675 6.99999C1.16675 10.22 3.77425 12.8333 6.99425 12.8333C10.2201 12.8333 12.8334 10.22 12.8334 6.99999C12.8334 3.77999 10.2201 1.16666 6.99425 1.16666ZM7.00008 11.6667C4.42175 11.6667 2.33341 9.57832 2.33341 6.99999C2.33341 4.42166 4.42175 2.33332 7.00008 2.33332C9.57841 2.33332 11.6667 4.42166 11.6667 6.99999C11.6667 9.57832 9.57841 11.6667 7.00008 11.6667ZM7.29175 4.08332H6.41675V7.58332L9.47925 9.42082L9.91675 8.70332L7.29175 7.14582V4.08332Z" fill="black" fill-opacity="0.2"/>
<path d="M6.99425 1.16666C3.77425 1.16666 1.16675 3.77999 1.16675 6.99999C1.16675 10.22 3.77425 12.8333 6.99425 12.8333C10.2201 12.8333 12.8334 10.22 12.8334 6.99999C12.8334 3.77999 10.2201 1.16666 6.99425 1.16666ZM7.00008 11.6667C4.42175 11.6667 2.33341 9.57832 2.33341 6.99999C2.33341 4.42166 4.42175 2.33332 7.00008 2.33332C9.57841 2.33332 11.6667 4.42166 11.6667 6.99999C11.6667 9.57832 9.57841 11.6667 7.00008 11.6667ZM7.29175 4.08332H6.41675V7.58332L9.47925 9.42082L9.91675 8.70332L7.29175 7.14582V4.08332Z" fill="black" fill-opacity="0.2"/>
</svg>
