<svg width="14" height="14" viewBox="0 0 14 14" fill="none" xmlns="http://www.w3.org/2000/svg">
<path d="M11.6667 4.87083V11.0833H10.5001V6.41667H3.50008V11.0833H2.33341V4.87083L7.00008 3.00417L11.6667 4.87083ZM12.8334 12.25V4.08333L7.00008 1.75L1.16675 4.08333V12.25H4.66675V7.58333H9.33341V12.25H12.8334ZM6.41675 11.0833H5.25008V12.25H6.41675V11.0833ZM7.58341 9.33333H6.41675V10.5H7.58341V9.33333ZM8.75008 11.0833H7.58341V12.25H8.75008V11.0833Z" fill="#6E6E78"/>
<path d="M11.6667 4.87083V11.0833H10.5001V6.41667H3.50008V11.0833H2.33341V4.87083L7.00008 3.00417L11.6667 4.87083ZM12.8334 12.25V4.08333L7.00008 1.75L1.16675 4.08333V12.25H4.66675V7.58333H9.33341V12.25H12.8334ZM6.41675 11.0833H5.25008V12.25H6.41675V11.0833ZM7.58341 9.33333H6.41675V10.5H7.58341V9.33333ZM8.75008 11.0833H7.58341V12.25H8.75008V11.0833Z" fill="black" fill-opacity="0.2"/>
<path d="M11.6667 4.87083V11.0833H10.5001V6.41667H3.50008V11.0833H2.33341V4.87083L7.00008 3.00417L11.6667 4.87083ZM12.8334 12.25V4.08333L7.00008 1.75L1.16675 4.08333V12.25H4.66675V7.58333H9.33341V12.25H12.8334ZM6.41675 11.0833H5.25008V12.25H6.41675V11.0833ZM7.58341 9.33333H6.41675V10.5H7.58341V9.33333ZM8.75008 11.0833H7.58341V12.25H8.75008V11.0833Z" fill="black" fill-opacity="0.2"/>
<path d="M11.6667 4.87083V11.0833H10.5001V6.41667H3.50008V11.0833H2.33341V4.87083L7.00008 3.00417L11.6667 4.87083ZM12.8334 12.25V4.08333L7.00008 1.75L1.16675 4.08333V12.25H4.66675V7.58333H9.33341V12.25H12.8334ZM6.41675 11.0833H5.25008V12.25H6.41675V11.0833ZM7.58341 9.33333H6.41675V10.5H7.58341V9.33333ZM8.75008 11.0833H7.58341V12.25H8.75008V11.0833Z" fill="black" fill-opacity="0.2"/>
</svg>
